<svg width="478" height="240" viewBox="0 0 478 240" fill="none" xmlns="http://www.w3.org/2000/svg">
<g clip-path="url(#clip0_43_71)">
<path d="M46 128.521C46 128.521 76.5975 134.477 96.4597 134.549C116.939 134.622 128.128 130.387 148.513 128.521C190.879 124.642 257.4 124 257.4 124L444.366 128.521C444.366 128.521 442.773 165.692 448.615 176.24C454.458 186.789 392.375 163.773 355.663 162.678C319.868 161.611 300.053 172.243 264.305 170.213C235.266 168.564 219.95 160.409 191.005 157.655C154.268 154.16 132.076 166.86 96.4597 157.655C85.8266 154.907 69.902 148.613 69.902 148.613L46 128.521Z" fill="url(#paint0_linear_43_71)"/>
<path d="M210 161L238.5 168.5C238.5 168.5 199.339 182.43 173.5 184C162.001 184.699 158 186 144 181.5C130 177 167.471 176.785 182 172C193.159 168.325 210 161 210 161Z" fill="url(#paint1_linear_43_71)"/>
<path d="M31 77L28 80L42.5 87L45.5 93L49 97.5L56.5 101L62 103.5L70 107L83.5 112L97.5 115H107H123L134.5 112L143 115L154.5 118.5L164 118L161 126.5L155.5 129L150.5 130H146.5L141 131L136 133.5L131 135.5L127 139.5L128 143L132 142L137.5 139.5L145.5 135.5V143L143 147.5L139.5 152L136.5 157L137.5 160L143 161.5H147.5L153.5 156L158.5 145.5L165.5 135.5L170.5 130L178 125L187 120.5H194.5L210.5 122L223.5 123L248.5 120.5H276L290 117.5L298.5 123L300.5 126.5L303.5 131L305 136L303 138.5L294.5 143L290 145L286.5 146.5L285.5 149L287.5 151L291.5 150L297.5 148L303.5 147L305.5 150L309.5 162.5L315.5 169L322 165.5L324 160.5V153L323 144.5L319 135.5L308 119L312 115.5H342.5L357 120.5L373.5 140L381.5 159.5L383 177V187L377 200L361 213.5L338 216L323 209L316.5 194.5L317.5 189.5L321 185L325.5 182H330.5L334 183.5L337.5 186.5L338.5 190.5L338 195.5L333.5 197.5L332 194.5L332.5 190.5H330L326.5 192.5L325.5 196L328 200.5L334 204L340 202.5L345 196.5L346 185L338.5 176.5L329.5 174.5L323 175L314 179.5L306 190.5L303.5 199.5L306.5 210.5L315 221.5L329.5 228L346.5 230L361 229.5L376 224L387 217L397 208.5L405 198.5L409 192L411 184L413 174L413.5 164L413 151.5L411.5 143.5L408.5 135.5L406.5 127L403.5 120.5L401.5 117L403 112.5L398 110.5L399 104.5C395.168 105.666 394.465 104.141 395.5 98C390.101 96.1352 388.898 93.8716 389.5 88L389 86.5H386L383 83C381.977 80.3054 381.761 78.6623 382 75.5C374.736 74.0665 372.978 71.8396 374.5 65C366.888 63.6019 365.346 60.7937 365 54C357.904 53.4574 356.257 50.972 355.5 44.5C348.796 44.6974 346.472 42.9345 346 35C339.608 37.3422 337.147 35.8221 335 27.5C327.176 28.2041 324.819 26.505 323.5 20.5C315.815 21.2191 313.625 19.3207 311.5 14C303.605 15.3436 300.914 14.2103 299 9C291.711 11.6745 288.795 11.3057 286.5 6C278.07 7.86527 274.785 7.43343 272.5 3C266.195 5.64112 263.456 5.08485 259.5 1C253.571 4.1916 250.283 4.23023 244.5 0.5C240.636 4.21623 238.084 4.01239 233 0.5L228 4L225 0.5C222.259 5.10349 220.556 5.5834 217 0C216 5.5 213.696 6.46148 211 2C207.76 5.8795 205.898 6.10649 202.5 3.5C201.408 7.72941 199.901 7.71556 196 4.5C194.645 9.8749 193.048 10.2176 189 7C188 12 185.436 12.9057 182 9.5L174.5 13C174.774 16.4813 173.788 17.1204 170.5 16.5C170.5 16.5 167.5 16 168 18C168.5 20 166.436 20.3543 165 20.5L162.5 21L162 21.5C161.264 23.5564 160.829 24.4034 160 25C158.783 25.2917 158.32 25.1114 158 24L160 19.5L162 15.5C162.701 13.8263 162.852 12.8491 162.5 11C161.829 9.40507 161.237 8.67212 160 7.50003C158.53 6.57544 157.641 6.29274 156 6.00006C151.558 5.32265 149.267 5.21742 145.5 5.50006C137.555 6.44823 133.067 7.42965 125 10.0001C117.997 12.6962 114.299 14.5958 108 18.5001L98 25.5001L89.5 31.0001C88.4958 32.0531 87.5973 32.4373 85 32.5C77.2563 31.7355 74.6371 31.8404 71.5 32.5C61.1632 35.8424 56.894 39.3479 51.5 48L50.5 52.5L49 56L46.5 60L42.5 64.5L40.5 67.5L39.5 69.5L38.5 71L38 72.5L37.5 73.5L36.5 74.5L34 75L31 77Z" fill="#39BF3E" stroke="black" stroke-width="0.3" id="camaleon"/>
<path d="M66 45L73.5 41L76.5 40.5H80L83.5 42.5L86 46.5L89.5 49.5L90.5 54.5L89.5 59L86.5 65L82 68.5H72L65 65L62 61.5L61.5 53.5V48.5L66 45Z" fill="white" stroke="black"/>
<path fill-rule="evenodd" clip-rule="evenodd" d="M97.2 25.6505C108.4 17.1171 122.533 10.0504 133.467 7.38379C145.733 4.45045 157.467 4.71712 160.8 8.05045C163.6 10.8504 163.467 13.9171 159.867 19.5171C157.6 23.1171 157.467 25.2505 159.467 25.2505C160.267 25.2505 161.2 24.0504 161.6 22.5838C162 20.8504 163.333 20.0504 165.2 20.3171C167.067 20.4505 168 19.9171 167.867 18.3171C167.733 16.7171 168.667 16.1838 171.2 16.3171C173.867 16.5838 174.533 16.0504 174.267 14.1838C174 12.9838 174.4 11.9171 175.067 11.9171C178.667 11.9171 181.733 22.1838 179.467 26.3171C178.667 27.7838 176.8 29.2505 175.2 29.6505L175.2 29.6505C173.921 29.9703 173.255 30.1366 173.144 29.9583C173.024 29.7649 173.557 29.1659 174.667 27.9171C175.867 26.5838 176.667 24.1838 176.4 22.7171C176.008 19.9733 175.872 20.0463 169.091 23.689L168.667 23.9171C164.667 26.0504 160.267 27.7838 159.067 27.9171C156.133 27.9171 154.667 22.4505 156.667 18.7171C158.8 14.5838 157.467 15.2505 147.6 22.7171C142.667 26.4505 139.867 29.2505 141.467 28.7171C142.933 28.3171 145.2 28.7171 146.667 29.7838C149.067 31.5171 149.067 32.1838 147.333 41.1171C145.867 49.1171 145.867 52.0505 147.333 58.9838C148.267 63.5171 149.333 70.5838 149.6 74.5838C150.133 81.1171 149.867 82.3171 146.8 85.1171C145.067 86.8505 141.467 88.5838 139.067 89.1171L134.667 90.0505L138.933 92.3171C145.067 95.5171 147.067 95.1171 150.133 90.1838C153.333 85.1171 153.067 74.3171 149.467 58.8504C147.867 51.9171 147.6 47.9171 148.533 44.8504C149.731 40.8589 149.733 40.9832 149.866 47.4757L149.867 47.5171C150 52.3171 150.533 54.4505 151.6 54.1838C152.667 54.0505 153.6 56.5838 154.133 61.1171C154.933 66.5838 156 69.2505 159.467 72.7171C175.867 89.6505 205.333 99.1171 241.333 98.9838C263.333 98.9838 276.8 96.4505 306 87.1171C322.267 81.9171 327.067 80.9838 336.667 80.8504C344 80.7171 349.2 81.2505 351.333 82.4505C362.533 88.4505 363.867 95.6505 355.067 103.117C348.533 108.717 346.8 109.117 348.933 104.584C349.733 102.717 351.067 101.25 351.733 101.25C354.267 101.25 358 96.8505 358 93.9171C358 89.7838 352.933 85.6505 345.6 83.9171C337.467 81.7838 320.8 84.1838 311.733 88.8505L305.333 92.0505L315.333 91.2505C320.8 90.8505 328.933 90.1838 333.467 89.7838C340.8 89.1171 341.867 89.2505 345.733 92.5838C349.6 95.7838 351.867 99.9171 348.667 97.9171C347.867 97.5171 347.333 98.5838 347.333 100.45C347.333 104.584 343.2 108.717 337.867 109.784C335.6 110.184 328 110.184 320.8 109.784C313.2 109.25 306.8 109.384 305.467 110.184C303.333 111.384 303.467 111.65 306 114.717C308.4 117.517 308.667 117.517 308.133 115.25C307.333 112.717 307.867 112.584 323.467 112.984C336 113.384 340.133 112.984 342.533 111.517C345.467 109.517 346.267 109.784 356.133 114.584C369.867 121.25 379.067 130.45 385.733 143.784C390.4 153.384 390.667 154.45 390.667 167.25C390.667 180.184 390.4 181.117 385.6 190.85C377.067 208.317 364.133 217.117 345.733 218.317C337.067 218.85 334.533 218.45 329.333 215.917C317.733 210.317 311.733 197.917 316.133 188.584C322 176.184 334.8 176.45 340.133 189.117C342.667 195.117 345.467 192.984 344.133 186.05C343.467 182.317 342.267 180.984 337.6 178.717C330.4 175.25 326.933 175.25 319.733 178.717C308.533 184.05 304.133 193.517 307.2 205.117C311.067 219.784 323.733 227.517 344.133 228.05L356 228.317L357.2 224.05L358.4 219.784L361.333 223.384L364.133 226.85L369.733 224.05C372.667 222.584 376.133 221.25 377.333 221.25C379.6 221.25 380 217.65 378 212.45L376.533 208.85L381.333 212.45L381.418 212.516C385.869 215.919 386.021 216.035 389.333 213.65C392.933 210.984 393.333 209.117 391.333 205.117C389.6 202.05 390.933 201.784 394.133 204.717C396.267 206.584 396.667 206.584 399.333 203.917L402.267 200.984L399.333 196.85C397.467 194.45 397.067 193.117 398.133 193.517C404.667 196.05 406 196.05 406 193.917C406 192.717 406.933 189.917 408.133 187.65C410.267 183.65 410.133 183.517 405.467 179.65C402.8 177.517 400.667 175.25 400.667 174.584C400.667 174.05 403.2 173.117 406.4 172.717L412.133 171.784L411.867 165.517C411.733 159.517 411.467 159.117 405.867 156.184L400 153.117L406.133 153.917L412.4 154.717L410.667 149.784C408.933 144.45 399.6 138.05 391.733 136.45C389.333 136.05 387.733 135.117 388.133 134.45C389.333 132.45 399.067 127.917 402 127.917C403.6 127.917 404.667 127.517 404.4 126.85C404.318 126.686 404.146 126.33 403.909 125.838C403.379 124.739 402.521 122.96 401.6 121.117C399.333 115.917 396.133 114.717 383.333 114.45L377.333 114.317L382.667 111.784C385.6 110.45 390 109.25 392.267 109.25H396.667L394.267 104.584L392 99.7838L376.4 100.184L360.8 100.584L364.267 96.9838C366.133 94.9838 370.667 92.1838 374.533 90.5838C378.267 89.1171 382.4 87.2505 383.6 86.5838C387.733 84.3171 390.267 84.9838 389.867 88.1838C389.333 92.0505 392.133 97.2505 394.8 97.2505C396.133 97.2505 396.533 98.1838 395.867 100.584C395.2 103.384 395.467 103.917 397.867 103.917C400.8 103.917 401.6 105.784 399.333 107.25C397.867 108.184 400 111.917 401.733 111.65C404.267 111.384 404.8 112.05 403.333 113.917C401.467 116.184 402.667 118.584 405.6 118.584C407.2 118.584 407.333 118.984 406 120.584C404.267 122.717 405.2 125.25 408 125.25C409.467 125.25 409.733 126.317 409.067 129.25C408.533 132.45 408.8 133.25 410.667 133.25C412.533 133.25 412.667 133.65 411.333 135.25C410 136.85 410 137.65 411.467 139.384C412.533 140.584 413.067 142.984 412.933 144.717C412.667 146.45 413.067 147.917 413.867 147.917C414.8 147.917 415.067 149.25 414.533 151.384C414 153.65 414.267 155.25 415.467 155.917C416.8 156.85 416.8 157.384 415.333 159.25C413.733 161.25 413.733 161.784 415.867 163.25C418.133 164.984 418.133 165.117 415.733 166.45C413.867 167.517 413.6 168.317 414.8 170.184C415.867 171.917 415.867 173.25 414.8 174.85C413.867 176.584 413.867 177.65 414.933 178.717C416 179.784 415.733 180.85 413.733 182.85C411.467 185.117 411.333 185.784 412.8 186.717C414.267 187.784 414.267 188.184 412.267 189.384C410.4 190.45 410 191.784 410.667 194.184C411.2 196.45 410.933 197.25 409.867 196.584C407.867 195.25 405.867 198.584 406.8 201.65C407.333 203.25 406.933 203.917 405.733 203.784C404.8 203.65 400.267 207.25 395.6 211.784C386.4 220.984 373.2 228.05 360.933 230.717C349.6 232.984 330.8 231.65 322.267 227.917C306.4 220.984 297.6 201.917 304.133 188.85C312.4 172.45 333.467 167.25 345.067 178.717C348.667 182.317 348.933 183.384 348.4 189.384C347.067 202.584 334.4 208.984 326.267 200.717C323.333 197.917 322.933 196.717 324 193.784C325.6 189.517 332 186.717 334.4 189.117C335.6 190.317 335.467 191.384 334.267 193.384C332.667 195.784 332.8 196.05 334.933 195.65C338.133 195.117 338.667 191.117 336.133 187.25C331.2 179.784 318 185.517 318 195.117C318 209.65 343.867 218.984 361.2 210.584C382.533 200.317 387.2 162.317 370.133 138.45C361.6 126.45 351.2 119.917 336.667 117.25C328.933 115.784 310 116.45 310 118.184C310 118.45 312.533 122.85 315.733 127.65C318.933 132.584 322.267 138.584 323.333 141.117C326.4 148.717 325.467 166.584 322 166.584C321.2 166.584 319.333 167.917 317.733 169.517L314.933 172.317L311.867 168.85C309.333 165.917 307.867 162.45 304 149.65C303.6 148.45 301.733 148.717 297.333 150.717C290.667 153.65 285.067 153.25 283.733 149.784C282.533 146.717 286.933 142.85 294.133 141.117C297.733 140.184 301.6 138.45 302.667 137.25C304.4 135.384 304 134.317 299.867 128.05C297.2 124.184 295.467 120.717 295.867 120.317C297.2 118.984 301.467 123.65 304.8 129.917L307.867 135.784L304.8 139.117C303.2 140.85 299.2 142.984 296.133 143.784C290.133 145.25 285.067 149.25 289.067 149.25C290.133 149.25 293.2 148.317 295.733 147.25C298.4 146.184 301.467 145.25 302.533 145.25C304.933 145.25 309.067 152.717 311.2 160.984C312.8 166.584 315.733 168.45 317.067 164.717C317.467 163.65 317.333 160.85 316.667 158.45C314.933 152.45 316 152.05 318 157.917C318.933 160.584 320.267 162.45 321.067 162.184C323.333 161.517 323.6 150.317 321.467 144.317C318.267 135.117 305.2 116.584 298.933 112.45L293.333 108.717L298.667 107.65C301.6 107.117 312.133 106.717 322.133 106.984C338.133 107.25 340.667 106.984 343.067 104.85C347.067 101.25 347.6 96.4505 344.133 94.8505C338.933 92.3171 337.333 92.3171 324 94.0505C316.667 94.9838 305.733 95.7838 299.733 95.9171C293.733 95.9171 287.333 96.4505 285.467 97.2505C279.6 99.3838 281.2 105.917 289.6 114.717L294.267 119.65L290.533 120.317C272.133 123.784 235.867 125.384 207.467 124.05L184.267 122.85L178.8 126.184C169.733 131.784 164.667 137.384 159.733 147.25C153.733 159.117 149.333 163.917 144.267 163.917C134.267 163.917 132.667 157.917 140.133 147.784C147.2 138.184 150 139.384 143.333 149.117C137.6 157.65 136.933 159.917 140 159.917C141.067 159.917 144.4 156.184 147.333 151.517C150.267 146.984 152.667 143.917 152.667 144.584C152.667 145.384 151.867 147.117 150.933 148.584C145.867 156.184 143.333 161.25 144.533 161.25C147.2 161.25 151.733 155.117 156.933 144.184C162.667 132.45 164.667 130.45 181.333 121.25C202.933 109.384 206.667 106.317 204.667 102.584C203.2 99.9171 199.2 98.1838 187.333 95.2505C177.333 92.7171 171.333 89.7838 171.333 87.6505C171.333 85.5171 166 79.9171 164 79.9171C160.933 79.9171 155.333 85.5171 155.333 88.5838C155.333 92.5838 158.533 94.4505 175.067 100.584C182.533 103.25 188.667 105.65 188.667 105.917C188.667 106.05 184 109.517 178.133 113.65C170.133 119.517 166.667 121.25 162.933 121.25C156.133 121.25 144.8 118.717 139.333 115.917C135.067 113.65 133.867 113.65 124.667 115.517C111.867 118.05 97.2 117.117 80.6667 112.584C59.3333 106.85 45.7333 99.2505 41.2 90.4505C40.1333 88.3171 38.5333 86.5838 37.6 86.5838C36.8 86.5838 34.2667 85.1171 32 83.2505L28 79.9171L31.2 77.2505C32.9333 75.7838 35.0667 74.5838 36 74.5838C36.9333 74.5838 38.1333 72.9838 38.5333 71.1171C39.0667 69.2505 41.7333 65.2505 44.5333 62.1838C47.4667 58.9838 50 54.5838 50.5333 51.9171C51.8667 44.0505 55.8667 39.1171 63.8667 35.2505C70.2667 32.1838 72.5333 31.6505 79.6 32.1838C87.5756 32.8375 87.7303 32.722 96.6597 26.0539L97.2 25.6505ZM147.333 12.5838C147.333 11.6505 146.4 10.4505 145.2 10.0504C145.033 9.9854 144.882 9.92422 144.742 9.86748L144.74 9.86702L144.74 9.86697C144.405 9.73141 144.133 9.62117 143.852 9.54362C142.627 9.2059 141.23 9.48874 133.752 11.0036L133.752 11.0037L132.533 11.2505C123.6 12.9838 112.933 18.7171 99.4667 28.8504C96.2667 31.2505 92.6667 33.2505 91.6 33.2505C90.1333 33.2505 90.9333 34.7171 94 37.5171C96.4 39.9171 99.2 43.6505 100 45.9171C102.4 51.5171 104 61.7838 102.267 60.7171C101.6 60.3171 100.667 57.6505 100.133 54.9838C98.2667 43.2505 89.2 35.9171 76.6667 35.9171C60.9333 35.9171 51.3333 48.4505 53.0667 66.5838L53.7333 73.9171L51.4667 67.2505L49.0667 60.7171L45.6 66.7171C43.6 70.0505 42 73.7838 42 74.9838C42 76.3171 40.9333 77.2505 39.4667 77.2505C38.1333 77.2505 36.2667 78.1838 35.3333 79.2505C33.8667 80.9838 34.5333 81.6505 39.4667 83.7838C46.1333 86.7171 71.8667 92.0505 78.4 91.7838C81.2 91.6505 81.7333 91.3838 80 90.9838C78.5333 90.5838 76.8 89.6505 76 88.9838C75.0667 87.9171 75.4667 87.7838 77.0667 88.4505C78.4 88.8505 81.6 89.2505 84.1333 89.2505C90.2667 89.2505 89.8667 91.1171 82.9333 95.2505C76 99.2505 73.3333 99.5171 77.8667 95.9171L80.9333 93.2505H73.8667C69.8667 93.2505 61.8667 92.3171 56.1333 91.2505C50.2667 90.1838 45.3333 89.5171 44.9333 89.7838C43.4667 91.2505 51.4667 97.1171 58.8 99.9171C76.1333 106.317 86 108.317 102.667 108.45C116.267 108.45 119.733 108.05 126.267 105.517C140 100.05 139.733 96.3171 124.8 85.1171C119.6 81.2505 115.6 77.9171 115.867 77.5171C116.267 77.2505 120 79.1171 124.267 81.7838C133.867 87.6505 141.333 88.3171 145.733 83.5171C149.333 79.6505 149.333 76.4505 146 63.1171C143.2 52.5838 143.333 46.9838 146.267 37.5171C147.867 32.1838 145.733 28.7171 141.467 30.0505C135.6 31.7838 120.4 41.6505 112.667 48.7171C108.267 52.8504 104.667 55.6505 104.667 54.9838C104.667 50.9838 118.533 36.1838 129.2 28.9838C139.2 22.0504 147.333 14.7171 147.333 12.5838ZM141.333 24.1838C155.467 14.8504 158.133 12.3171 155.2 10.4505C154.133 9.78378 152 9.25046 150.4 9.25046C148.267 9.25046 147.733 9.91711 148.267 11.9171C148.933 14.7171 144 20.3171 134 28.3171C131.467 30.3171 134.8 28.4505 141.333 24.1838ZM157.333 79.9171C158.8 78.7171 158.933 77.6505 157.733 75.3838C155.467 70.9838 155.333 71.1171 155.333 76.5838C155.333 80.8504 155.6 81.3838 157.333 79.9171ZM168.667 102.05C163.2 99.3838 157.733 96.4505 156.533 95.6505C155.333 94.7171 154.133 93.2505 153.867 92.3171C153.467 91.2505 152.267 91.6505 150.133 93.3838C146.667 96.1838 143.067 96.5838 139.2 94.4505C136.8 93.2505 136.667 93.5171 137.467 96.4505C138 98.7171 137.467 100.45 135.2 102.717L132.267 105.65L135.067 104.984C136.667 104.45 138 104.45 138 104.717C138 105.784 130.8 108.184 122 109.917C115.467 111.25 114.533 111.65 118 111.784C120.533 111.784 125.333 111.25 128.533 110.45C133.333 109.384 135.467 109.65 141.733 111.917C145.867 113.517 152.267 115.384 155.867 116.05C161.733 117.117 163.067 116.85 167.867 114.05C168.252 113.821 168.625 113.599 168.986 113.385C174.35 110.196 176.947 108.653 176.868 107.263C176.793 105.958 174.36 104.788 169.644 102.521L169.639 102.518L169.574 102.487L169.517 102.459L169.501 102.452L169.002 102.212L168.667 102.05ZM380.4 97.2505C386.4 97.2505 386.667 96.9838 384.667 93.1171C382.933 90.0505 382.8 90.0505 376.267 92.8505C370.133 95.3838 371.733 97.2505 380.4 97.2505ZM215.333 100.85C212.8 100.717 209.867 99.7838 208.933 98.8505C206 96.1838 204.667 96.9838 206.133 100.717C207.867 105.384 205.2 109.384 197.333 113.917C194 115.917 191.333 117.784 191.333 118.05C191.333 119.384 193.867 118.184 200.4 114.05C208.4 108.717 209.2 109.25 203.067 115.65L198.667 120.05L228 119.784C253.2 119.517 281.733 118.05 282.8 116.85C283.067 116.717 282.533 114.184 281.867 111.25C281.067 108.317 280.133 104.317 279.733 102.184C279.705 102.037 279.678 101.896 279.653 101.76C279.443 100.653 279.3 99.8943 278.853 99.4228C277.88 98.3953 275.467 98.7316 267.795 99.8008L267.794 99.8008C267.226 99.8801 266.628 99.9634 266 100.05C257.333 101.117 229.867 101.65 215.333 100.85ZM387.067 174.984C390.8 170.05 387.467 152.05 380.4 139.25C377.733 134.317 364.667 121.384 364.667 123.65C364.667 124.584 365.067 125.25 365.733 125.25C367.6 125.25 380.4 145.917 382.533 152.317C383.733 155.784 384.8 162.85 384.933 168.05C385.2 176.317 385.467 177.117 387.067 174.984ZM398.667 135.917C403.333 138.984 406 139.25 406 136.85C406 133.384 401.6 130.717 398 132.184L394.8 133.384L398.667 135.917ZM211.733 2.98376C212.8 5.78377 216.667 4.45044 216.667 1.38377C216.8 -0.482895 216.933 -0.482895 218.533 1.51711C220.8 4.45044 222.8 4.58377 223.867 1.65044C224.667 -0.349564 224.933 -0.349564 226.4 1.9171C228.133 4.05045 228.267 4.05045 230.533 1.9171C232.267 0.183777 233.2 -0.082901 234.4 1.11711C236.4 3.11711 242.933 2.98376 243.733 0.850433C244.133 -0.349564 245.2 -0.216232 248.267 1.51711C251.733 3.51711 252.533 3.51711 256 1.78377C259.2 0.183777 259.867 0.183777 261.2 1.78377C262.933 4.05045 267.067 4.7171 270.533 3.25044C272.267 2.45044 273.6 2.85043 274.8 4.58377C276.267 6.45044 277.6 6.7171 282 6.05045C285.333 5.51711 287.333 5.78377 287.333 6.58377C287.333 8.98376 294.4 10.9838 297.067 9.25044C299.067 8.05045 299.6 8.18378 300.267 10.4504C300.933 13.2504 306.133 15.1171 310.133 13.9171C311.867 13.3838 312.667 13.6504 312.667 15.1171C312.667 17.6504 319.067 20.9838 322.4 20.3171C323.733 19.9171 324.667 20.4504 324.667 21.6504C324.667 24.3171 330.667 28.0504 333.2 27.1171C334.533 26.5838 335.6 27.2504 336.133 28.7171C337.867 33.5171 340.933 35.9171 344.133 35.1171C346.8 34.4504 347.333 34.8504 347.333 37.5171C347.333 41.5171 349.6 43.9171 353.6 43.9171C355.6 43.9171 356.667 44.7171 356.667 46.1838C356.8 49.7838 360 53.2504 363.2 53.2504C365.2 53.2504 366 54.0504 366 56.1838C366.133 60.4504 369.067 63.9171 372.533 63.9171C374.933 63.9171 375.333 64.4504 374.667 66.4504C373.6 70.0504 376.667 74.5838 380.4 74.5838C382.933 74.5838 383.333 75.1171 382.667 77.2504C382.267 78.5838 382.533 80.9838 383.333 82.5838C384.533 84.7171 384.4 85.2504 382.667 85.2504C381.6 85.2504 379.333 82.5838 377.733 79.3838C375.2 74.0504 374.667 73.6504 371.467 74.5838C366.8 76.0504 353.6 77.1171 354.933 75.9171C355.375 75.4756 358.01 73.6631 361.098 71.5391L361.101 71.537L361.103 71.5354L361.104 71.535L361.134 71.5144L361.851 71.021C362.252 70.7449 362.659 70.4651 363.067 70.1838C369.333 66.1838 369.867 65.3838 367.467 64.5838C366 64.1838 363.067 61.5171 361.067 58.5838C357.867 54.3171 356.8 53.7838 354.8 54.8504C352.8 56.0504 351.067 54.9838 344.933 48.7171C339.067 42.8504 337.733 40.9838 339.067 39.6504C341.467 37.2504 341.067 35.9171 337.867 35.9171C335.867 35.9171 335.333 36.5838 335.867 37.9171C336.933 40.7171 336.267 40.4504 329.2 35.5171C325.067 32.7171 323.733 31.1171 325.2 30.8504C326.4 30.5838 327.333 29.7838 327.333 28.9838C327.333 28.1838 326.133 27.9171 324.4 28.5838C320 29.7838 319.467 29.7838 310.667 26.4504L309.823 26.1386C303.921 23.9573 302.023 23.2556 301.983 22.4606C301.964 22.0837 302.363 21.6857 302.951 21.0991L303.067 20.9838C306 18.0504 304.667 16.1838 299.2 15.2504C296.267 14.7171 290.533 13.1171 286.533 11.7838C278.8 8.98376 275.867 9.51711 272.4 14.4504C270.933 16.5838 269.333 16.7171 259.733 16.1838C250.267 15.6504 249.067 15.3838 250.8 13.6504C251.733 12.5838 252.667 10.3171 252.667 8.45044C252.667 5.38377 252.4 5.38377 245.733 5.9171C241.867 6.18378 238 5.78377 237.067 4.98376C235.733 3.9171 235.333 4.85043 235.333 9.51711V15.5171L223.333 17.1171C216.8 17.9171 209.733 18.9838 207.6 19.3838C204.533 20.0504 203.867 19.6504 203.733 17.1171C203.6 15.5171 202.267 12.8504 200.8 11.3838C198.267 8.98376 197.867 8.85043 195.733 10.8504C194.4 12.0504 192.8 13.1171 192 13.2504C191.333 13.2504 188.533 13.9171 186 14.5838C183.067 15.3838 180.933 15.3838 180.133 14.5838C179.2 13.6504 179.467 13.2504 180.533 13.2504C181.6 13.2504 182 12.4504 181.467 11.2504C180.667 9.11711 182.667 8.45044 184 10.5838C185.067 12.3171 188.667 10.7171 188.667 8.31711C188.667 6.7171 189.067 6.58377 190.667 7.9171C192.933 9.78377 195.333 8.58377 195.333 5.51711C195.333 3.9171 195.733 3.78377 196.933 4.98376C199.2 7.25044 202 6.98376 202 4.58377C202 2.85043 202.4 2.85043 204.667 4.18378C206.8 5.65044 207.6 5.51711 209.067 3.38377C210.667 1.11711 210.933 1.11711 211.733 2.98376ZM219.333 14.1838C227.6 12.9838 230.8 11.9171 231.067 10.3171C231.333 8.98376 230.267 8.05045 228.133 7.65044C226.267 7.25044 224.533 7.11711 224.267 7.38377C224.133 7.65044 220.933 7.9171 217.333 8.05045C213.6 8.31711 209.333 9.11711 207.733 9.9171C205.2 11.2504 204.933 11.9171 206.4 13.7838C207.867 15.7838 209.067 15.7838 219.333 14.1838ZM262.667 13.2504C271.333 13.2504 274.533 10.1838 267.067 8.85043C264.667 8.45044 261.6 7.78377 260.4 7.25044C258.8 6.58377 257.733 6.98376 257.2 8.31711C256 11.6504 257.733 13.2504 262.667 13.2504ZM64.6667 42.1838C54.9334 50.9838 58.2667 66.4505 70.8 70.5838C82.6667 74.5838 95.3334 61.9171 91.3334 50.0504C87.6 38.7171 73.2 34.5838 64.6667 42.1838ZM82.1334 43.9171C83.4667 44.7171 85.6 47.1171 86.8 49.3838C92 59.6505 81.6 70.5838 70.9334 66.0504C65.3334 63.7838 63.3334 60.4505 63.3334 53.9171C63.3334 44.9838 73.6 39.3838 82.1334 43.9171ZM72.6667 56.5838C71.3334 54.9838 71.3334 54.1838 72.6667 52.5838C73.6 51.5171 74.8 50.5838 75.3334 50.5838C77.3334 50.5838 79.6 54.5838 78.8 56.5838C77.8667 59.1171 74.8 59.1171 72.6667 56.5838ZM238.667 14.5838C236.667 15.5171 237.333 15.7838 241.733 15.7838C245.2 15.9171 247.2 15.3838 246.667 14.5838C245.733 12.9838 242.4 12.9838 238.667 14.5838ZM285.333 19.2504C279.6 18.0504 274.533 16.8504 274.133 16.5838C272.933 15.3838 283.2 15.9171 290.267 17.5171C294.133 18.3171 298.267 19.9171 299.333 20.9838C301.067 22.5838 301.067 22.7171 298.533 22.0504C296.933 21.5171 291.067 20.3171 285.333 19.2504ZM189.333 22.5838C183.867 25.3838 185.467 25.1171 195.467 22.0505C199.867 20.7171 200.533 20.1838 198 20.0505C196.133 20.0505 192.267 21.1171 189.333 22.5838ZM201.085 25.9023C202.771 24.4081 205.487 24.0762 213.333 23.1171C218.948 22.4433 224.279 21.7696 226.459 21.494L226.462 21.4936L226.909 21.4372L227.333 21.3838C228.4 21.3838 227.2 22.9838 224.667 25.1171C222.939 26.5489 221.851 27.4505 221.165 28.5936C220 30.5377 220 33.1803 220 40.3171V51.6505L213.733 58.3171C210.267 62.0505 207.067 66.4505 206.667 68.1838C206.438 69.097 206.08 70.7487 205.69 72.5438C205.397 73.8937 205.086 75.3247 204.8 76.5838L203.733 81.9171L202.133 78.0505C200.933 74.9838 201.067 72.7171 202.667 67.2505C205.6 57.1171 205.2 52.9838 200.4 43.2505L196 34.4505L198.667 29.5171C199.59 27.8096 200.193 26.6931 201.085 25.9023ZM213.067 54.8505C216.267 51.5171 216.667 49.9171 217.2 38.8505L217.867 26.5838H212.267C206.533 26.5838 201.733 29.3838 200.267 33.5171C199.867 34.7171 200.933 38.5838 202.667 41.9171C204.533 45.2505 206.4 50.4505 206.8 53.2505C207.333 56.1838 208.133 58.5838 208.533 58.5838C209.067 58.5838 211.067 56.8505 213.067 54.8505ZM232 22.5838C231.467 23.3838 233.6 23.9171 237.2 23.9171C240.533 23.9171 243.333 23.2505 243.333 22.5838C243.333 21.7838 240.933 21.2505 238.133 21.2505C235.2 21.2505 232.4 21.7838 232 22.5838ZM246.267 42.3171C248.8 34.7171 248.933 28.7171 246.667 23.5171C245.733 21.3838 246.133 21.1171 250.133 21.7838C252.667 22.1838 258.133 22.8505 262.4 23.2505C270.533 24.1838 272.667 26.0505 272.667 32.3171C272.667 35.9171 270.4 38.1838 262.267 42.7171C254.933 46.7171 253.467 49.6505 250.4 65.2505L248 77.7838L245.733 63.9171C243.467 50.4505 243.467 50.0505 246.267 42.3171ZM262.933 39.3838C268.933 36.3171 270.533 32.8505 267.6 29.5171C265.333 26.8505 254 24.3171 252.267 26.0505C251.733 26.5838 251.333 29.1171 251.333 31.7838C251.2 34.4505 250.4 38.9838 249.333 41.9171C248.267 44.8505 247.333 49.6505 247.333 52.5838C247.467 57.5171 247.6 57.7838 249.333 55.3838C250.4 53.9171 251.333 51.7838 251.333 50.5838C251.333 47.9171 257.2 42.3171 262.933 39.3838ZM276.533 27.3838C279.067 28.5838 284 29.7838 287.6 30.1838C292.533 30.7171 294 31.3838 293.467 32.8505C292.933 33.9171 292.667 36.5838 292.667 38.8505C292.667 41.7838 291.067 44.4505 286.533 49.1171C279.467 56.1838 278 59.2505 278 66.7171V72.1838L282.4 66.3171C285.467 62.1838 289.467 59.2505 296.133 55.9171C301.467 53.3838 306.8 50.4505 308 49.3838C309.867 47.6505 315.333 38.4505 315.333 36.7171C315.333 35.2505 278.667 25.1171 274.133 25.3838C272.933 25.3838 274 26.3171 276.533 27.3838ZM307.733 37.5171C313.067 40.1838 308 47.5171 297.733 51.9171C293.867 53.5171 288.667 56.3171 286.4 58.1838C280.267 62.7171 280.933 60.0505 287.867 51.9171C291.067 48.1838 294.133 42.9838 294.533 40.5838C295.067 38.1838 296.133 35.7838 297.067 35.5171C298.933 34.7171 304.267 35.7838 307.733 37.5171ZM181.333 30.4505L186.667 28.7171C189.6 27.6505 192.933 26.7171 194 26.7171C198 26.5838 192.267 28.9838 186.667 29.7838L181.333 30.4505ZM174.8 31.7838C173.733 33.3838 176 39.2505 179.2 43.7838C181.733 47.2505 182.667 51.7838 182.267 58.5838V58.584C182.154 59.9401 182.089 60.7215 181.777 60.8367C181.353 60.9935 180.474 59.919 178.4 57.3838C175.467 54.0505 172.8 52.5838 166.667 51.1171C162.267 50.1838 157.467 49.2505 156 49.2505C151.067 49.3838 157.333 51.9171 166 53.3838C170.267 54.1838 174.533 55.6505 175.333 56.4505C176 57.3838 177.2 61.2505 178 64.9838C179.067 71.2505 182.667 79.9171 183.867 79.9171C184.133 79.9171 184.133 77.5171 183.733 74.7171C183.333 71.7838 183.733 65.5171 184.667 60.8505C186 53.5171 185.867 51.6505 184 47.1171C182.8 44.3171 180.667 40.5838 179.067 38.9838C177.333 37.1171 176.533 34.9838 177.067 33.2505C177.733 30.5838 176.133 29.5171 174.8 31.7838ZM329.6 43.3838C328.533 44.5838 319.733 41.3838 318 39.1171C317.067 38.1838 316.667 37.2505 317.067 37.2505C319.067 37.2505 330.267 42.7171 329.6 43.3838ZM327.6 48.9838C324.667 51.7838 323.333 54.4505 322.667 59.3838C321.467 67.1171 320.133 70.0505 315.6 74.8505C309.733 81.1171 314.4 78.9838 320.667 72.4505C327.067 66.0505 333.333 62.1838 343.733 58.7171L350.133 56.4505L342.4 50.8505C338.267 47.7838 334 45.2505 333.2 45.2505C332.267 45.2505 329.867 46.9838 327.6 48.9838ZM339.867 53.2505C342.133 55.5171 342 55.6505 334.933 59.1171C330.8 60.9838 326.933 62.5838 326.133 62.5838C323.6 62.5838 327.333 51.2505 330.267 50.1838C332.8 49.1171 336.933 50.4505 339.867 53.2505ZM149.867 128.05C155.333 127.117 160.667 125.917 161.867 125.25C164.667 123.65 165.6 124.85 163.2 127.117C160.4 129.65 153.067 131.917 147.067 131.917C140.8 131.917 134.267 134.584 130.8 138.45C126.667 142.984 128.8 142.717 136.933 137.65C141.067 135.117 145.067 133.384 145.867 133.917C148 135.117 147.733 138.984 145.467 138.184C144.533 137.784 141.067 139.25 137.867 141.384C128.4 147.65 122.667 146.184 126.667 138.45C129.333 133.25 136.667 130.05 149.867 128.05Z" fill="black"/>
<path fill-rule="evenodd" clip-rule="evenodd" d="M97.2 25.6505C108.4 17.1171 122.533 10.0504 133.467 7.38379C145.733 4.45045 157.467 4.71712 160.8 8.05045C163.6 10.8504 163.467 13.9171 159.867 19.5171C157.6 23.1171 157.467 25.2505 159.467 25.2505C160.267 25.2505 161.2 24.0504 161.6 22.5838C162 20.8504 163.333 20.0504 165.2 20.3171C167.067 20.4505 168 19.9171 167.867 18.3171C167.733 16.7171 168.667 16.1838 171.2 16.3171C173.867 16.5838 174.533 16.0504 174.267 14.1838C174 12.9838 174.4 11.9171 175.067 11.9171C178.667 11.9171 181.733 22.1838 179.467 26.3171C178.667 27.7838 176.8 29.2505 175.2 29.6505L175.2 29.6505C173.921 29.9703 173.255 30.1366 173.144 29.9583C173.024 29.7649 173.557 29.1659 174.667 27.9171C175.867 26.5838 176.667 24.1838 176.4 22.7171C176.008 19.9733 175.872 20.0463 169.091 23.689L168.667 23.9171C164.667 26.0504 160.267 27.7838 159.067 27.9171C156.133 27.9171 154.667 22.4505 156.667 18.7171C158.8 14.5838 157.467 15.2505 147.6 22.7171C142.667 26.4505 139.867 29.2505 141.467 28.7171C142.933 28.3171 145.2 28.7171 146.667 29.7838C149.067 31.5171 149.067 32.1838 147.333 41.1171C145.867 49.1171 145.867 52.0505 147.333 58.9838C148.267 63.5171 149.333 70.5838 149.6 74.5838C150.133 81.1171 149.867 82.3171 146.8 85.1171C145.067 86.8505 141.467 88.5838 139.067 89.1171L134.667 90.0505L138.933 92.3171C145.067 95.5171 147.067 95.1171 150.133 90.1838C153.333 85.1171 153.067 74.3171 149.467 58.8504C147.867 51.9171 147.6 47.9171 148.533 44.8504C149.731 40.8589 149.733 40.9832 149.866 47.4757L149.867 47.5171C150 52.3171 150.533 54.4505 151.6 54.1838C152.667 54.0505 153.6 56.5838 154.133 61.1171C154.933 66.5838 156 69.2505 159.467 72.7171C175.867 89.6505 205.333 99.1171 241.333 98.9838C263.333 98.9838 276.8 96.4505 306 87.1171C322.267 81.9171 327.067 80.9838 336.667 80.8504C344 80.7171 349.2 81.2505 351.333 82.4505C362.533 88.4505 363.867 95.6505 355.067 103.117C348.533 108.717 346.8 109.117 348.933 104.584C349.733 102.717 351.067 101.25 351.733 101.25C354.267 101.25 358 96.8505 358 93.9171C358 89.7838 352.933 85.6505 345.6 83.9171C337.467 81.7838 320.8 84.1838 311.733 88.8505L305.333 92.0505L315.333 91.2505C320.8 90.8505 328.933 90.1838 333.467 89.7838C340.8 89.1171 341.867 89.2505 345.733 92.5838C349.6 95.7838 351.867 99.9171 348.667 97.9171C347.867 97.5171 347.333 98.5838 347.333 100.45C347.333 104.584 343.2 108.717 337.867 109.784C335.6 110.184 328 110.184 320.8 109.784C313.2 109.25 306.8 109.384 305.467 110.184C303.333 111.384 303.467 111.65 306 114.717C308.4 117.517 308.667 117.517 308.133 115.25C307.333 112.717 307.867 112.584 323.467 112.984C336 113.384 340.133 112.984 342.533 111.517C345.467 109.517 346.267 109.784 356.133 114.584C369.867 121.25 379.067 130.45 385.733 143.784C390.4 153.384 390.667 154.45 390.667 167.25C390.667 180.184 390.4 181.117 385.6 190.85C377.067 208.317 364.133 217.117 345.733 218.317C337.067 218.85 334.533 218.45 329.333 215.917C317.733 210.317 311.733 197.917 316.133 188.584C322 176.184 334.8 176.45 340.133 189.117C342.667 195.117 345.467 192.984 344.133 186.05C343.467 182.317 342.267 180.984 337.6 178.717C330.4 175.25 326.933 175.25 319.733 178.717C308.533 184.05 304.133 193.517 307.2 205.117C311.067 219.784 323.733 227.517 344.133 228.05L356 228.317L357.2 224.05L358.4 219.784L361.333 223.384L364.133 226.85L369.733 224.05C372.667 222.584 376.133 221.25 377.333 221.25C379.6 221.25 380 217.65 378 212.45L376.533 208.85L381.333 212.45L381.418 212.516C385.869 215.919 386.021 216.035 389.333 213.65C392.933 210.984 393.333 209.117 391.333 205.117C389.6 202.05 390.933 201.784 394.133 204.717C396.267 206.584 396.667 206.584 399.333 203.917L402.267 200.984L399.333 196.85C397.467 194.45 397.067 193.117 398.133 193.517C404.667 196.05 406 196.05 406 193.917C406 192.717 406.933 189.917 408.133 187.65C410.267 183.65 410.133 183.517 405.467 179.65C402.8 177.517 400.667 175.25 400.667 174.584C400.667 174.05 403.2 173.117 406.4 172.717L412.133 171.784L411.867 165.517C411.733 159.517 411.467 159.117 405.867 156.184L400 153.117L406.133 153.917L412.4 154.717L410.667 149.784C408.933 144.45 399.6 138.05 391.733 136.45C389.333 136.05 387.733 135.117 388.133 134.45C389.333 132.45 399.067 127.917 402 127.917C403.6 127.917 404.667 127.517 404.4 126.85C404.318 126.686 404.146 126.33 403.909 125.838C403.379 124.739 402.521 122.96 401.6 121.117C399.333 115.917 396.133 114.717 383.333 114.45L377.333 114.317L382.667 111.784C385.6 110.45 390 109.25 392.267 109.25H396.667L394.267 104.584L392 99.7838L376.4 100.184L360.8 100.584L364.267 96.9838C366.133 94.9838 370.667 92.1838 374.533 90.5838C378.267 89.1171 382.4 87.2505 383.6 86.5838C387.733 84.3171 390.267 84.9838 389.867 88.1838C389.333 92.0505 392.133 97.2505 394.8 97.2505C396.133 97.2505 396.533 98.1838 395.867 100.584C395.2 103.384 395.467 103.917 397.867 103.917C400.8 103.917 401.6 105.784 399.333 107.25C397.867 108.184 400 111.917 401.733 111.65C404.267 111.384 404.8 112.05 403.333 113.917C401.467 116.184 402.667 118.584 405.6 118.584C407.2 118.584 407.333 118.984 406 120.584C404.267 122.717 405.2 125.25 408 125.25C409.467 125.25 409.733 126.317 409.067 129.25C408.533 132.45 408.8 133.25 410.667 133.25C412.533 133.25 412.667 133.65 411.333 135.25C410 136.85 410 137.65 411.467 139.384C412.533 140.584 413.067 142.984 412.933 144.717C412.667 146.45 413.067 147.917 413.867 147.917C414.8 147.917 415.067 149.25 414.533 151.384C414 153.65 414.267 155.25 415.467 155.917C416.8 156.85 416.8 157.384 415.333 159.25C413.733 161.25 413.733 161.784 415.867 163.25C418.133 164.984 418.133 165.117 415.733 166.45C413.867 167.517 413.6 168.317 414.8 170.184C415.867 171.917 415.867 173.25 414.8 174.85C413.867 176.584 413.867 177.65 414.933 178.717C416 179.784 415.733 180.85 413.733 182.85C411.467 185.117 411.333 185.784 412.8 186.717C414.267 187.784 414.267 188.184 412.267 189.384C410.4 190.45 410 191.784 410.667 194.184C411.2 196.45 410.933 197.25 409.867 196.584C407.867 195.25 405.867 198.584 406.8 201.65C407.333 203.25 406.933 203.917 405.733 203.784C404.8 203.65 400.267 207.25 395.6 211.784C386.4 220.984 373.2 228.05 360.933 230.717C349.6 232.984 330.8 231.65 322.267 227.917C306.4 220.984 297.6 201.917 304.133 188.85C312.4 172.45 333.467 167.25 345.067 178.717C348.667 182.317 348.933 183.384 348.4 189.384C347.067 202.584 334.4 208.984 326.267 200.717C323.333 197.917 322.933 196.717 324 193.784C325.6 189.517 332 186.717 334.4 189.117C335.6 190.317 335.467 191.384 334.267 193.384C332.667 195.784 332.8 196.05 334.933 195.65C338.133 195.117 338.667 191.117 336.133 187.25C331.2 179.784 318 185.517 318 195.117C318 209.65 343.867 218.984 361.2 210.584C382.533 200.317 387.2 162.317 370.133 138.45C361.6 126.45 351.2 119.917 336.667 117.25C328.933 115.784 310 116.45 310 118.184C310 118.45 312.533 122.85 315.733 127.65C318.933 132.584 322.267 138.584 323.333 141.117C326.4 148.717 325.467 166.584 322 166.584C321.2 166.584 319.333 167.917 317.733 169.517L314.933 172.317L311.867 168.85C309.333 165.917 307.867 162.45 304 149.65C303.6 148.45 301.733 148.717 297.333 150.717C290.667 153.65 285.067 153.25 283.733 149.784C282.533 146.717 286.933 142.85 294.133 141.117C297.733 140.184 301.6 138.45 302.667 137.25C304.4 135.384 304 134.317 299.867 128.05C297.2 124.184 295.467 120.717 295.867 120.317C297.2 118.984 301.467 123.65 304.8 129.917L307.867 135.784L304.8 139.117C303.2 140.85 299.2 142.984 296.133 143.784C290.133 145.25 285.067 149.25 289.067 149.25C290.133 149.25 293.2 148.317 295.733 147.25C298.4 146.184 301.467 145.25 302.533 145.25C304.933 145.25 309.067 152.717 311.2 160.984C312.8 166.584 315.733 168.45 317.067 164.717C317.467 163.65 317.333 160.85 316.667 158.45C314.933 152.45 316 152.05 318 157.917C318.933 160.584 320.267 162.45 321.067 162.184C323.333 161.517 323.6 150.317 321.467 144.317C318.267 135.117 305.2 116.584 298.933 112.45L293.333 108.717L298.667 107.65C301.6 107.117 312.133 106.717 322.133 106.984C338.133 107.25 340.667 106.984 343.067 104.85C347.067 101.25 347.6 96.4505 344.133 94.8505C338.933 92.3171 337.333 92.3171 324 94.0505C316.667 94.9838 305.733 95.7838 299.733 95.9171C293.733 95.9171 287.333 96.4505 285.467 97.2505C279.6 99.3838 281.2 105.917 289.6 114.717L294.267 119.65L290.533 120.317C272.133 123.784 235.867 125.384 207.467 124.05L184.267 122.85L178.8 126.184C169.733 131.784 164.667 137.384 159.733 147.25C153.733 159.117 149.333 163.917 144.267 163.917C134.267 163.917 132.667 157.917 140.133 147.784C147.2 138.184 150 139.384 143.333 149.117C137.6 157.65 136.933 159.917 140 159.917C141.067 159.917 144.4 156.184 147.333 151.517C150.267 146.984 152.667 143.917 152.667 144.584C152.667 145.384 151.867 147.117 150.933 148.584C145.867 156.184 143.333 161.25 144.533 161.25C147.2 161.25 151.733 155.117 156.933 144.184C162.667 132.45 164.667 130.45 181.333 121.25C202.933 109.384 206.667 106.317 204.667 102.584C203.2 99.9171 199.2 98.1838 187.333 95.2505C177.333 92.7171 171.333 89.7838 171.333 87.6505C171.333 85.5171 166 79.9171 164 79.9171C160.933 79.9171 155.333 85.5171 155.333 88.5838C155.333 92.5838 158.533 94.4505 175.067 100.584C182.533 103.25 188.667 105.65 188.667 105.917C188.667 106.05 184 109.517 178.133 113.65C170.133 119.517 166.667 121.25 162.933 121.25C156.133 121.25 144.8 118.717 139.333 115.917C135.067 113.65 133.867 113.65 124.667 115.517C111.867 118.05 97.2 117.117 80.6667 112.584C59.3333 106.85 45.7333 99.2505 41.2 90.4505C40.1333 88.3171 38.5333 86.5838 37.6 86.5838C36.8 86.5838 34.2667 85.1171 32 83.2505L28 79.9171L31.2 77.2505C32.9333 75.7838 35.0667 74.5838 36 74.5838C36.9333 74.5838 38.1333 72.9838 38.5333 71.1171C39.0667 69.2505 41.7333 65.2505 44.5333 62.1838C47.4667 58.9838 50 54.5838 50.5333 51.9171C51.8667 44.0505 55.8667 39.1171 63.8667 35.2505C70.2667 32.1838 72.5333 31.6505 79.6 32.1838C87.5756 32.8375 87.7303 32.722 96.6597 26.0539L97.2 25.6505ZM147.333 12.5838C147.333 11.6505 146.4 10.4505 145.2 10.0504C145.033 9.9854 144.882 9.92422 144.742 9.86748L144.74 9.86702L144.74 9.86697C144.405 9.73141 144.133 9.62117 143.852 9.54362C142.627 9.2059 141.23 9.48874 133.752 11.0036L133.752 11.0037L132.533 11.2505C123.6 12.9838 112.933 18.7171 99.4667 28.8504C96.2667 31.2505 92.6667 33.2505 91.6 33.2505C90.1333 33.2505 90.9333 34.7171 94 37.5171C96.4 39.9171 99.2 43.6505 100 45.9171C102.4 51.5171 104 61.7838 102.267 60.7171C101.6 60.3171 100.667 57.6505 100.133 54.9838C98.2667 43.2505 89.2 35.9171 76.6667 35.9171C60.9333 35.9171 51.3333 48.4505 53.0667 66.5838L53.7333 73.9171L51.4667 67.2505L49.0667 60.7171L45.6 66.7171C43.6 70.0505 42 73.7838 42 74.9838C42 76.3171 40.9333 77.2505 39.4667 77.2505C38.1333 77.2505 36.2667 78.1838 35.3333 79.2505C33.8667 80.9838 34.5333 81.6505 39.4667 83.7838C46.1333 86.7171 71.8667 92.0505 78.4 91.7838C81.2 91.6505 81.7333 91.3838 80 90.9838C78.5333 90.5838 76.8 89.6505 76 88.9838C75.0667 87.9171 75.4667 87.7838 77.0667 88.4505C78.4 88.8505 81.6 89.2505 84.1333 89.2505C90.2667 89.2505 89.8667 91.1171 82.9333 95.2505C76 99.2505 73.3333 99.5171 77.8667 95.9171L80.9333 93.2505H73.8667C69.8667 93.2505 61.8667 92.3171 56.1333 91.2505C50.2667 90.1838 45.3333 89.5171 44.9333 89.7838C43.4667 91.2505 51.4667 97.1171 58.8 99.9171C76.1333 106.317 86 108.317 102.667 108.45C116.267 108.45 119.733 108.05 126.267 105.517C140 100.05 139.733 96.3171 124.8 85.1171C119.6 81.2505 115.6 77.9171 115.867 77.5171C116.267 77.2505 120 79.1171 124.267 81.7838C133.867 87.6505 141.333 88.3171 145.733 83.5171C149.333 79.6505 149.333 76.4505 146 63.1171C143.2 52.5838 143.333 46.9838 146.267 37.5171C147.867 32.1838 145.733 28.7171 141.467 30.0505C135.6 31.7838 120.4 41.6505 112.667 48.7171C108.267 52.8504 104.667 55.6505 104.667 54.9838C104.667 50.9838 118.533 36.1838 129.2 28.9838C139.2 22.0504 147.333 14.7171 147.333 12.5838ZM141.333 24.1838C155.467 14.8504 158.133 12.3171 155.2 10.4505C154.133 9.78378 152 9.25046 150.4 9.25046C148.267 9.25046 147.733 9.91711 148.267 11.9171C148.933 14.7171 144 20.3171 134 28.3171C131.467 30.3171 134.8 28.4505 141.333 24.1838ZM157.333 79.9171C158.8 78.7171 158.933 77.6505 157.733 75.3838C155.467 70.9838 155.333 71.1171 155.333 76.5838C155.333 80.8504 155.6 81.3838 157.333 79.9171ZM168.667 102.05C163.2 99.3838 157.733 96.4505 156.533 95.6505C155.333 94.7171 154.133 93.2505 153.867 92.3171C153.467 91.2505 152.267 91.6505 150.133 93.3838C146.667 96.1838 143.067 96.5838 139.2 94.4505C136.8 93.2505 136.667 93.5171 137.467 96.4505C138 98.7171 137.467 100.45 135.2 102.717L132.267 105.65L135.067 104.984C136.667 104.45 138 104.45 138 104.717C138 105.784 130.8 108.184 122 109.917C115.467 111.25 114.533 111.65 118 111.784C120.533 111.784 125.333 111.25 128.533 110.45C133.333 109.384 135.467 109.65 141.733 111.917C145.867 113.517 152.267 115.384 155.867 116.05C161.733 117.117 163.067 116.85 167.867 114.05C168.252 113.821 168.625 113.599 168.986 113.385C174.35 110.196 176.947 108.653 176.868 107.263C176.793 105.958 174.36 104.788 169.644 102.521L169.639 102.518L169.574 102.487L169.517 102.459L169.501 102.452L169.002 102.212L168.667 102.05ZM380.4 97.2505C386.4 97.2505 386.667 96.9838 384.667 93.1171C382.933 90.0505 382.8 90.0505 376.267 92.8505C370.133 95.3838 371.733 97.2505 380.4 97.2505ZM215.333 100.85C212.8 100.717 209.867 99.7838 208.933 98.8505C206 96.1838 204.667 96.9838 206.133 100.717C207.867 105.384 205.2 109.384 197.333 113.917C194 115.917 191.333 117.784 191.333 118.05C191.333 119.384 193.867 118.184 200.4 114.05C208.4 108.717 209.2 109.25 203.067 115.65L198.667 120.05L228 119.784C253.2 119.517 281.733 118.05 282.8 116.85C283.067 116.717 282.533 114.184 281.867 111.25C281.067 108.317 280.133 104.317 279.733 102.184C279.705 102.037 279.678 101.896 279.653 101.76C279.443 100.653 279.3 99.8943 278.853 99.4228C277.88 98.3953 275.467 98.7316 267.795 99.8008L267.794 99.8008C267.226 99.8801 266.628 99.9634 266 100.05C257.333 101.117 229.867 101.65 215.333 100.85ZM387.067 174.984C390.8 170.05 387.467 152.05 380.4 139.25C377.733 134.317 364.667 121.384 364.667 123.65C364.667 124.584 365.067 125.25 365.733 125.25C367.6 125.25 380.4 145.917 382.533 152.317C383.733 155.784 384.8 162.85 384.933 168.05C385.2 176.317 385.467 177.117 387.067 174.984ZM398.667 135.917C403.333 138.984 406 139.25 406 136.85C406 133.384 401.6 130.717 398 132.184L394.8 133.384L398.667 135.917ZM211.733 2.98376C212.8 5.78377 216.667 4.45044 216.667 1.38377C216.8 -0.482895 216.933 -0.482895 218.533 1.51711C220.8 4.45044 222.8 4.58377 223.867 1.65044C224.667 -0.349564 224.933 -0.349564 226.4 1.9171C228.133 4.05045 228.267 4.05045 230.533 1.9171C232.267 0.183777 233.2 -0.082901 234.4 1.11711C236.4 3.11711 242.933 2.98376 243.733 0.850433C244.133 -0.349564 245.2 -0.216232 248.267 1.51711C251.733 3.51711 252.533 3.51711 256 1.78377C259.2 0.183777 259.867 0.183777 261.2 1.78377C262.933 4.05045 267.067 4.7171 270.533 3.25044C272.267 2.45044 273.6 2.85043 274.8 4.58377C276.267 6.45044 277.6 6.7171 282 6.05045C285.333 5.51711 287.333 5.78377 287.333 6.58377C287.333 8.98376 294.4 10.9838 297.067 9.25044C299.067 8.05045 299.6 8.18378 300.267 10.4504C300.933 13.2504 306.133 15.1171 310.133 13.9171C311.867 13.3838 312.667 13.6504 312.667 15.1171C312.667 17.6504 319.067 20.9838 322.4 20.3171C323.733 19.9171 324.667 20.4504 324.667 21.6504C324.667 24.3171 330.667 28.0504 333.2 27.1171C334.533 26.5838 335.6 27.2504 336.133 28.7171C337.867 33.5171 340.933 35.9171 344.133 35.1171C346.8 34.4504 347.333 34.8504 347.333 37.5171C347.333 41.5171 349.6 43.9171 353.6 43.9171C355.6 43.9171 356.667 44.7171 356.667 46.1838C356.8 49.7838 360 53.2504 363.2 53.2504C365.2 53.2504 366 54.0504 366 56.1838C366.133 60.4504 369.067 63.9171 372.533 63.9171C374.933 63.9171 375.333 64.4504 374.667 66.4504C373.6 70.0504 376.667 74.5838 380.4 74.5838C382.933 74.5838 383.333 75.1171 382.667 77.2504C382.267 78.5838 382.533 80.9838 383.333 82.5838C384.533 84.7171 384.4 85.2504 382.667 85.2504C381.6 85.2504 379.333 82.5838 377.733 79.3838C375.2 74.0504 374.667 73.6504 371.467 74.5838C366.8 76.0504 353.6 77.1171 354.933 75.9171C355.375 75.4756 358.01 73.6631 361.098 71.5391L361.101 71.537L361.103 71.5354L361.104 71.535L361.134 71.5144L361.851 71.021C362.252 70.7449 362.659 70.4651 363.067 70.1838C369.333 66.1838 369.867 65.3838 367.467 64.5838C366 64.1838 363.067 61.5171 361.067 58.5838C357.867 54.3171 356.8 53.7838 354.8 54.8504C352.8 56.0504 351.067 54.9838 344.933 48.7171C339.067 42.8504 337.733 40.9838 339.067 39.6504C341.467 37.2504 341.067 35.9171 337.867 35.9171C335.867 35.9171 335.333 36.5838 335.867 37.9171C336.933 40.7171 336.267 40.4504 329.2 35.5171C325.067 32.7171 323.733 31.1171 325.2 30.8504C326.4 30.5838 327.333 29.7838 327.333 28.9838C327.333 28.1838 326.133 27.9171 324.4 28.5838C320 29.7838 319.467 29.7838 310.667 26.4504L309.823 26.1386C303.921 23.9573 302.023 23.2556 301.983 22.4606C301.964 22.0837 302.363 21.6857 302.951 21.0991L303.067 20.9838C306 18.0504 304.667 16.1838 299.2 15.2504C296.267 14.7171 290.533 13.1171 286.533 11.7838C278.8 8.98376 275.867 9.51711 272.4 14.4504C270.933 16.5838 269.333 16.7171 259.733 16.1838C250.267 15.6504 249.067 15.3838 250.8 13.6504C251.733 12.5838 252.667 10.3171 252.667 8.45044C252.667 5.38377 252.4 5.38377 245.733 5.9171C241.867 6.18378 238 5.78377 237.067 4.98376C235.733 3.9171 235.333 4.85043 235.333 9.51711V15.5171L223.333 17.1171C216.8 17.9171 209.733 18.9838 207.6 19.3838C204.533 20.0504 203.867 19.6504 203.733 17.1171C203.6 15.5171 202.267 12.8504 200.8 11.3838C198.267 8.98376 197.867 8.85043 195.733 10.8504C194.4 12.0504 192.8 13.1171 192 13.2504C191.333 13.2504 188.533 13.9171 186 14.5838C183.067 15.3838 180.933 15.3838 180.133 14.5838C179.2 13.6504 179.467 13.2504 180.533 13.2504C181.6 13.2504 182 12.4504 181.467 11.2504C180.667 9.11711 182.667 8.45044 184 10.5838C185.067 12.3171 188.667 10.7171 188.667 8.31711C188.667 6.7171 189.067 6.58377 190.667 7.9171C192.933 9.78377 195.333 8.58377 195.333 5.51711C195.333 3.9171 195.733 3.78377 196.933 4.98376C199.2 7.25044 202 6.98376 202 4.58377C202 2.85043 202.4 2.85043 204.667 4.18378C206.8 5.65044 207.6 5.51711 209.067 3.38377C210.667 1.11711 210.933 1.11711 211.733 2.98376ZM219.333 14.1838C227.6 12.9838 230.8 11.9171 231.067 10.3171C231.333 8.98376 230.267 8.05045 228.133 7.65044C226.267 7.25044 224.533 7.11711 224.267 7.38377C224.133 7.65044 220.933 7.9171 217.333 8.05045C213.6 8.31711 209.333 9.11711 207.733 9.9171C205.2 11.2504 204.933 11.9171 206.4 13.7838C207.867 15.7838 209.067 15.7838 219.333 14.1838ZM262.667 13.2504C271.333 13.2504 274.533 10.1838 267.067 8.85043C264.667 8.45044 261.6 7.78377 260.4 7.25044C258.8 6.58377 257.733 6.98376 257.2 8.31711C256 11.6504 257.733 13.2504 262.667 13.2504ZM64.6667 42.1838C54.9334 50.9838 58.2667 66.4505 70.8 70.5838C82.6667 74.5838 95.3334 61.9171 91.3334 50.0504C87.6 38.7171 73.2 34.5838 64.6667 42.1838ZM82.1334 43.9171C83.4667 44.7171 85.6 47.1171 86.8 49.3838C92 59.6505 81.6 70.5838 70.9334 66.0504C65.3334 63.7838 63.3334 60.4505 63.3334 53.9171C63.3334 44.9838 73.6 39.3838 82.1334 43.9171ZM72.6667 56.5838C71.3334 54.9838 71.3334 54.1838 72.6667 52.5838C73.6 51.5171 74.8 50.5838 75.3334 50.5838C77.3334 50.5838 79.6 54.5838 78.8 56.5838C77.8667 59.1171 74.8 59.1171 72.6667 56.5838ZM238.667 14.5838C236.667 15.5171 237.333 15.7838 241.733 15.7838C245.2 15.9171 247.2 15.3838 246.667 14.5838C245.733 12.9838 242.4 12.9838 238.667 14.5838ZM285.333 19.2504C279.6 18.0504 274.533 16.8504 274.133 16.5838C272.933 15.3838 283.2 15.9171 290.267 17.5171C294.133 18.3171 298.267 19.9171 299.333 20.9838C301.067 22.5838 301.067 22.7171 298.533 22.0504C296.933 21.5171 291.067 20.3171 285.333 19.2504ZM189.333 22.5838C183.867 25.3838 185.467 25.1171 195.467 22.0505C199.867 20.7171 200.533 20.1838 198 20.0505C196.133 20.0505 192.267 21.1171 189.333 22.5838ZM201.085 25.9023C202.771 24.4081 205.487 24.0762 213.333 23.1171C218.948 22.4433 224.279 21.7696 226.459 21.494L226.462 21.4936L226.909 21.4372L227.333 21.3838C228.4 21.3838 227.2 22.9838 224.667 25.1171C222.939 26.5489 221.851 27.4505 221.165 28.5936C220 30.5377 220 33.1803 220 40.3171V51.6505L213.733 58.3171C210.267 62.0505 207.067 66.4505 206.667 68.1838C206.438 69.097 206.08 70.7487 205.69 72.5438C205.397 73.8937 205.086 75.3247 204.8 76.5838L203.733 81.9171L202.133 78.0505C200.933 74.9838 201.067 72.7171 202.667 67.2505C205.6 57.1171 205.2 52.9838 200.4 43.2505L196 34.4505L198.667 29.5171C199.59 27.8096 200.193 26.6931 201.085 25.9023ZM213.067 54.8505C216.267 51.5171 216.667 49.9171 217.2 38.8505L217.867 26.5838H212.267C206.533 26.5838 201.733 29.3838 200.267 33.5171C199.867 34.7171 200.933 38.5838 202.667 41.9171C204.533 45.2505 206.4 50.4505 206.8 53.2505C207.333 56.1838 208.133 58.5838 208.533 58.5838C209.067 58.5838 211.067 56.8505 213.067 54.8505ZM232 22.5838C231.467 23.3838 233.6 23.9171 237.2 23.9171C240.533 23.9171 243.333 23.2505 243.333 22.5838C243.333 21.7838 240.933 21.2505 238.133 21.2505C235.2 21.2505 232.4 21.7838 232 22.5838ZM246.267 42.3171C248.8 34.7171 248.933 28.7171 246.667 23.5171C245.733 21.3838 246.133 21.1171 250.133 21.7838C252.667 22.1838 258.133 22.8505 262.4 23.2505C270.533 24.1838 272.667 26.0505 272.667 32.3171C272.667 35.9171 270.4 38.1838 262.267 42.7171C254.933 46.7171 253.467 49.6505 250.4 65.2505L248 77.7838L245.733 63.9171C243.467 50.4505 243.467 50.0505 246.267 42.3171ZM262.933 39.3838C268.933 36.3171 270.533 32.8505 267.6 29.5171C265.333 26.8505 254 24.3171 252.267 26.0505C251.733 26.5838 251.333 29.1171 251.333 31.7838C251.2 34.4505 250.4 38.9838 249.333 41.9171C248.267 44.8505 247.333 49.6505 247.333 52.5838C247.467 57.5171 247.6 57.7838 249.333 55.3838C250.4 53.9171 251.333 51.7838 251.333 50.5838C251.333 47.9171 257.2 42.3171 262.933 39.3838ZM276.533 27.3838C279.067 28.5838 284 29.7838 287.6 30.1838C292.533 30.7171 294 31.3838 293.467 32.8505C292.933 33.9171 292.667 36.5838 292.667 38.8505C292.667 41.7838 291.067 44.4505 286.533 49.1171C279.467 56.1838 278 59.2505 278 66.7171V72.1838L282.4 66.3171C285.467 62.1838 289.467 59.2505 296.133 55.9171C301.467 53.3838 306.8 50.4505 308 49.3838C309.867 47.6505 315.333 38.4505 315.333 36.7171C315.333 35.2505 278.667 25.1171 274.133 25.3838C272.933 25.3838 274 26.3171 276.533 27.3838ZM307.733 37.5171C313.067 40.1838 308 47.5171 297.733 51.9171C293.867 53.5171 288.667 56.3171 286.4 58.1838C280.267 62.7171 280.933 60.0505 287.867 51.9171C291.067 48.1838 294.133 42.9838 294.533 40.5838C295.067 38.1838 296.133 35.7838 297.067 35.5171C298.933 34.7171 304.267 35.7838 307.733 37.5171ZM181.333 30.4505L186.667 28.7171C189.6 27.6505 192.933 26.7171 194 26.7171C198 26.5838 192.267 28.9838 186.667 29.7838L181.333 30.4505ZM174.8 31.7838C173.733 33.3838 176 39.2505 179.2 43.7838C181.733 47.2505 182.667 51.7838 182.267 58.5838V58.584C182.154 59.9401 182.089 60.7215 181.777 60.8367C181.353 60.9935 180.474 59.919 178.4 57.3838C175.467 54.0505 172.8 52.5838 166.667 51.1171C162.267 50.1838 157.467 49.2505 156 49.2505C151.067 49.3838 157.333 51.9171 166 53.3838C170.267 54.1838 174.533 55.6505 175.333 56.4505C176 57.3838 177.2 61.2505 178 64.9838C179.067 71.2505 182.667 79.9171 183.867 79.9171C184.133 79.9171 184.133 77.5171 183.733 74.7171C183.333 71.7838 183.733 65.5171 184.667 60.8505C186 53.5171 185.867 51.6505 184 47.1171C182.8 44.3171 180.667 40.5838 179.067 38.9838C177.333 37.1171 176.533 34.9838 177.067 33.2505C177.733 30.5838 176.133 29.5171 174.8 31.7838ZM329.6 43.3838C328.533 44.5838 319.733 41.3838 318 39.1171C317.067 38.1838 316.667 37.2505 317.067 37.2505C319.067 37.2505 330.267 42.7171 329.6 43.3838ZM327.6 48.9838C324.667 51.7838 323.333 54.4505 322.667 59.3838C321.467 67.1171 320.133 70.0505 315.6 74.8505C309.733 81.1171 314.4 78.9838 320.667 72.4505C327.067 66.0505 333.333 62.1838 343.733 58.7171L350.133 56.4505L342.4 50.8505C338.267 47.7838 334 45.2505 333.2 45.2505C332.267 45.2505 329.867 46.9838 327.6 48.9838ZM339.867 53.2505C342.133 55.5171 342 55.6505 334.933 59.1171C330.8 60.9838 326.933 62.5838 326.133 62.5838C323.6 62.5838 327.333 51.2505 330.267 50.1838C332.8 49.1171 336.933 50.4505 339.867 53.2505ZM149.867 128.05C155.333 127.117 160.667 125.917 161.867 125.25C164.667 123.65 165.6 124.85 163.2 127.117C160.4 129.65 153.067 131.917 147.067 131.917C140.8 131.917 134.267 134.584 130.8 138.45C126.667 142.984 128.8 142.717 136.933 137.65C141.067 135.117 145.067 133.384 145.867 133.917C148 135.117 147.733 138.984 145.467 138.184C144.533 137.784 141.067 139.25 137.867 141.384C128.4 147.65 122.667 146.184 126.667 138.45C129.333 133.25 136.667 130.05 149.867 128.05Z" fill="black" fill-opacity="0.2"/>
</g>
<defs>
<linearGradient id="paint0_linear_43_71" x1="247.308" y1="124" x2="247.308" y2="176.24" gradientUnits="userSpaceOnUse">
<stop stop-color="#8C6F20"/>
<stop offset="1" stop-color="#483A11"/>
</linearGradient>
<linearGradient id="paint1_linear_43_71" x1="144" y1="171.405" x2="238.5" y2="171.405" gradientUnits="userSpaceOnUse">
<stop stop-color="#8C6F20"/>
<stop offset="1" stop-color="#483A11"/>
</linearGradient>
<clipPath id="clip0_43_71">
<rect width="478" height="240" fill="white"/>
</clipPath>
</defs>
</svg>
