<svg width="482" height="220" viewBox="0 0 482 220" fill="none" xmlns="http://www.w3.org/2000/svg">
<mask id="path-1-inside-1_9_15" fill="white">
<path d="M14.2183 71.7451L46.0381 39.9253L132.305 126.192L100.485 158.012L14.2183 71.7451Z"/>
</mask>
<path d="M14.2183 71.7451L46.0381 39.9253L132.305 126.192L100.485 158.012L14.2183 71.7451Z" fill="#003BFF"/>
<path d="M14.2183 71.7451L10.6827 68.2096L7.14719 71.7451L10.6827 75.2807L14.2183 71.7451ZM46.0381 39.9253L49.5736 36.3898L46.0381 32.8543L42.5025 36.3898L46.0381 39.9253ZM14.2183 71.7451L17.7538 75.2807L49.5736 43.4609L46.0381 39.9253L42.5025 36.3898L10.6827 68.2096L14.2183 71.7451ZM46.0381 39.9253L42.5025 43.4609L128.77 129.728L132.305 126.192L135.841 122.657L49.5736 36.3898L46.0381 39.9253ZM100.485 158.012L104.021 154.477L17.7538 68.2096L14.2183 71.7451L10.6827 75.2807L96.9498 161.548L100.485 158.012Z" fill="white" mask="url(#path-1-inside-1_9_15)"/>
<path d="M85.643 173.562L148.562 110.643L150.923 175.923L85.643 173.562Z" fill="#003BFF" stroke="white" stroke-width="5"/>
<mask id="path-4-inside-2_9_15" fill="white">
<path d="M430.255 39.2183L462.075 71.0381L375.808 157.305L343.988 125.485L430.255 39.2183Z"/>
</mask>
<path d="M430.255 39.2183L462.075 71.0381L375.808 157.305L343.988 125.485L430.255 39.2183Z" fill="#003BFF"/>
<path d="M430.255 39.2183L433.79 35.6827L430.255 32.1472L426.719 35.6827L430.255 39.2183ZM462.075 71.0381L465.61 74.5736L469.146 71.0381L465.61 67.5025L462.075 71.0381ZM430.255 39.2183L426.719 42.7538L458.539 74.5736L462.075 71.0381L465.61 67.5025L433.79 35.6827L430.255 39.2183ZM462.075 71.0381L458.539 67.5025L372.272 153.77L375.808 157.305L379.343 160.841L465.61 74.5736L462.075 71.0381ZM343.988 125.485L347.523 129.021L433.79 42.7538L430.255 39.2183L426.719 35.6827L340.452 121.95L343.988 125.485Z" fill="white" mask="url(#path-4-inside-2_9_15)"/>
<path d="M328.438 110.643L391.357 173.562L326.077 175.923L328.438 110.643Z" fill="#003BFF" stroke="white" stroke-width="5"/>
<mask id="path-7-inside-3_9_15" fill="white">
<path d="M219 0H264V122H219V0Z"/>
</mask>
<path d="M219 0H264V122H219V0Z" fill="#003BFF"/>
<path d="M219 0V-5H214V0H219ZM264 0H269V-5H264V0ZM219 0V5H264V0V-5H219V0ZM264 0H259V122H264H269V0H264ZM219 122H224V0H219H214V122H219Z" fill="white" mask="url(#path-7-inside-3_9_15)"/>
<path d="M197.51 122.5L286.49 122.5L242 170.33L197.51 122.5Z" fill="#003BFF" stroke="white" stroke-width="5"/>
</svg>
