<svg width="107" height="60" viewBox="0 0 107 60" fill="none" xmlns="http://www.w3.org/2000/svg">
<path d="M59.3438 55H81.2188C81.426 55 81.6247 54.9177 81.7712 54.7712C81.9177 54.6247 82 54.4259 82 54.2188C82 54.0116 81.9177 53.8128 81.7712 53.6663C81.6247 53.5198 81.426 53.4375 81.2188 53.4375H59.3438C59.1365 53.4375 58.9378 53.3552 58.7913 53.2087C58.6448 53.0622 58.5625 52.8634 58.5625 52.6562V7.34375C58.5625 7.13655 58.6448 6.93784 58.7913 6.79132C58.9378 6.64481 59.1365 6.5625 59.3438 6.5625H92.1562C92.3634 6.5625 92.5622 6.64481 92.7087 6.79132C92.8552 6.93784 92.9375 7.13655 92.9375 7.34375V15.1562C92.9375 15.3635 93.0198 15.5622 93.1663 15.7087C93.3128 15.8552 93.5116 15.9375 93.7188 15.9375C93.9259 15.9375 94.1247 15.8552 94.2712 15.7087C94.4177 15.5622 94.5 15.3635 94.5 15.1562V7.34375C94.5 6.05156 93.4484 5 92.1562 5H59.3438C58.0516 5 57 6.05156 57 7.34375V52.6562C57 53.9484 58.0516 55 59.3438 55Z" fill="#D9D9D9"/>
<path d="M85.125 21.4062V52.6562C85.125 53.9484 86.1766 55 87.4688 55H104.656C105.948 55 107 53.9484 107 52.6562V21.4062C107 20.1141 105.948 19.0625 104.656 19.0625H87.4688C86.1766 19.0625 85.125 20.1141 85.125 21.4062ZM105.438 21.4062V52.6562C105.438 52.8634 105.355 53.0622 105.209 53.2087C105.062 53.3552 104.863 53.4375 104.656 53.4375H87.4688C87.2615 53.4375 87.0628 53.3552 86.9163 53.2087C86.7698 53.0622 86.6875 52.8634 86.6875 52.6562V21.4062C86.6875 21.199 86.7698 21.0003 86.9163 20.8538C87.0628 20.7073 87.2615 20.625 87.4688 20.625H104.656C104.863 20.625 105.062 20.7073 105.209 20.8538C105.355 21.0003 105.438 21.199 105.438 21.4062Z" fill="#D9D9D9"/>
<path d="M75.75 50.3125C76.6129 50.3125 77.3125 49.6129 77.3125 48.75C77.3125 47.8871 76.6129 47.1875 75.75 47.1875C74.8871 47.1875 74.1875 47.8871 74.1875 48.75C74.1875 49.6129 74.8871 50.3125 75.75 50.3125Z" fill="#D9D9D9"/>
<path d="M96.0625 50.3125C96.9254 50.3125 97.625 49.6129 97.625 48.75C97.625 47.8871 96.9254 47.1875 96.0625 47.1875C95.1996 47.1875 94.5 47.8871 94.5 48.75C94.5 49.6129 95.1996 50.3125 96.0625 50.3125Z" fill="#D9D9D9"/>
<path d="M40.9 35C41.1 33.35 41.25 31.7 41.25 30C41.25 28.3 41.1 26.65 40.9 25H49.35C49.75 26.6 50 28.275 50 30C50 31.725 49.75 33.4 49.35 35M36.475 48.9C37.975 46.125 39.125 43.125 39.925 40H47.3C44.8779 44.1707 41.0353 47.33 36.475 48.9ZM35.85 35H24.15C23.9 33.35 23.75 31.7 23.75 30C23.75 28.3 23.9 26.625 24.15 25H35.85C36.075 26.625 36.25 28.3 36.25 30C36.25 31.7 36.075 33.35 35.85 35ZM30 49.9C27.925 46.9 26.25 43.575 25.225 40H34.775C33.75 43.575 32.075 46.9 30 49.9ZM20 20H12.7C15.0966 15.8176 18.9366 12.6531 23.5 11.1C22 13.875 20.875 16.875 20 20ZM12.7 40H20C20.875 43.125 22 46.125 23.5 48.9C18.9457 47.3308 15.1107 44.1705 12.7 40ZM10.65 35C10.25 33.4 10 31.725 10 30C10 28.275 10.25 26.6 10.65 25H19.1C18.9 26.65 18.75 28.3 18.75 30C18.75 31.7 18.9 33.35 19.1 35M30 10.075C32.075 13.075 33.75 16.425 34.775 20H25.225C26.25 16.425 27.925 13.075 30 10.075ZM47.3 20H39.925C39.1414 16.904 37.9828 13.9153 36.475 11.1C41.075 12.675 44.9 15.85 47.3 20ZM30 5C16.175 5 5 16.25 5 30C5 36.6304 7.63392 42.9893 12.3223 47.6777C14.6438 49.9991 17.3998 51.8406 20.4329 53.097C23.4661 54.3534 26.717 55 30 55C36.6304 55 42.9893 52.3661 47.6777 47.6777C52.3661 42.9893 55 36.6304 55 30C55 26.717 54.3534 23.4661 53.097 20.4329C51.8406 17.3998 49.9991 14.6438 47.6777 12.3223C45.3562 10.0009 42.6002 8.15938 39.5671 6.90301C36.5339 5.64664 33.283 5 30 5Z" fill="white"/>
</svg>
