<svg width="478" height="240" fill="none" xmlns="http://www.w3.org/2000/svg"><g clip-path="url(#a)"><path d="M46 128.521s30.597 5.956 50.46 6.028c20.479.073 31.668-4.162 52.053-6.028C190.879 124.642 257.4 124 257.4 124l186.966 4.521s-1.593 37.171 4.249 47.719c5.843 10.549-56.24-12.467-92.952-13.562-35.795-1.067-55.61 9.565-91.358 7.535-29.039-1.649-44.355-9.804-73.3-12.558-36.737-3.495-58.929 9.205-94.545 0-10.633-2.748-26.558-9.042-26.558-9.042L46 128.521z" fill="url(#b)"/><path d="m210 161 28.5 7.5s-39.161 13.93-65 15.5c-11.499.699-15.5 2-29.5-2.5s23.471-4.715 38-9.5c11.159-3.675 28-11 28-11z" fill="url(#c)"/><path d="m31 77-3 3 14.5 7 3 6 3.5 4.5 7.5 3.5 5.5 2.5 8 3.5 13.5 5 14 3H123l11.5-3 8.5 3 11.5 3.5 9.5-.5-3 8.5-5.5 2.5-5 1h-4l-5.5 1-5 2.5-5 2-4 4 1 3.5 4-1 5.5-2.5 8-4v7.5l-2.5 4.5-3.5 4.5-3 5 1 3 5.5 1.5h4.5l6-5.5 5-10.5 7-10 5-5.5 7.5-5 9-4.5h7.5l16 1.5 13 1 25-2.5H276l14-3 8.5 5.5 2 3.5 3 4.5 1.5 5-2 2.5-8.5 4.5-4.5 2-3.5 1.5-1 2.5 2 2 4-1 6-2 6-1 2 3 4 12.5 6 6.5 6.5-3.5 2-5V153l-1-8.5-4-9-11-16.5 4-3.5h30.5l14.5 5 16.5 19.5 8 19.5L383 177v10l-6 13-16 13.5-23 2.5-15-7-6.5-14.5 1-5 3.5-4.5 4.5-3h5l3.5 1.5 3.5 3 1 4-.5 5-4.5 2-1.5-3 .5-4H330l-3.5 2-1 3.5 2.5 4.5 6 3.5 6-1.5 5-6 1-11.5-7.5-8.5-9-2-6.5.5-9 4.5-8 11-2.5 9 3 11 8.5 11 14.5 6.5 17 2 14.5-.5 15-5.5 11-7 10-8.5 8-10 4-6.5 2-8 2-10 .5-10-.5-12.5-1.5-8-3-8-2-8.5-3-6.5-2-3.5 1.5-4.5-5-2 1-6c-3.832 1.166-4.535-.359-3.5-6.5-5.399-1.865-6.602-4.128-6-10l-.5-1.5h-3l-3-3.5c-1.023-2.695-1.239-4.338-1-7.5-7.264-1.433-9.022-3.66-7.5-10.5-7.612-1.398-9.154-4.206-9.5-11-7.096-.543-8.743-3.028-9.5-9.5-6.704.197-9.028-1.566-9.5-9.5-6.392 2.342-8.853.822-11-7.5-7.824.704-10.181-.995-11.5-7-7.685.72-9.875-1.18-12-6.5-7.895 1.344-10.586.21-12.5-5-7.289 2.675-10.205 2.306-12.5-3-8.43 1.865-11.715 1.433-14-3-6.305 2.641-9.044 2.085-13-2-5.929 3.192-9.217 3.23-15-.5-3.864 3.716-6.416 3.512-11.5 0L228 4l-3-3.5c-2.741 4.603-4.444 5.083-8-.5-1 5.5-3.304 6.461-6 2-3.24 3.88-5.102 4.106-8.5 1.5-1.092 4.23-2.599 4.216-6.5 1-1.355 5.375-2.952 5.718-7 2.5-1 5-3.564 5.906-7 2.5l-7.5 3.5c.274 3.481-.712 4.12-4 3.5 0 0-3-.5-2.5 1.5s-1.564 2.354-3 2.5l-2.5.5-.5.5c-.736 2.056-1.171 2.903-2 3.5-1.217.292-1.68.111-2-1l2-4.5 2-4c.701-1.674.852-2.65.5-4.5-.671-1.595-1.263-2.328-2.5-3.5-1.47-.925-2.359-1.207-4-1.5-4.442-.677-6.733-.783-10.5-.5-7.945.948-12.433 1.93-20.5 4.5-7.003 2.696-10.701 4.596-17 8.5l-10 7-8.5 5.5c-1.004 1.053-1.903 1.437-4.5 1.5-7.744-.765-10.363-.66-13.5 0-10.337 3.342-14.606 6.848-20 15.5l-1 4.5L49 56l-2.5 4-4 4.5-2 3-1 2-1 1.5-.5 1.5-.5 1-1 1-2.5.5-3 2z" fill="#39BF3E" stroke="#000" stroke-width=".3"/><path d="m66 45 7.5-4 3-.5H80l3.5 2 2.5 4 3.5 3 1 5-1 4.5-3 6-4.5 3.5H72L65 65l-3-3.5-.5-8v-5L66 45z" fill="#fff" stroke="#000"/><path fill-rule="evenodd" clip-rule="evenodd" d="M97.2 25.65c11.2-8.533 25.333-15.6 36.267-18.266 12.266-2.934 24-2.667 27.333.666 2.8 2.8 2.667 5.867-.933 11.467-2.267 3.6-2.4 5.733-.4 5.733.8 0 1.733-1.2 2.133-2.666.4-1.734 1.733-2.534 3.6-2.267 1.867.134 2.8-.4 2.667-2-.134-1.6.8-2.133 3.333-2 2.667.267 3.333-.267 3.067-2.133-.267-1.2.133-2.267.8-2.267 3.6 0 6.666 10.267 4.4 14.4-.8 1.467-2.667 2.933-4.267 3.334-1.279.32-1.945.486-2.056.307-.12-.193.413-.792 1.523-2.04 1.2-1.334 2-3.734 1.733-5.2-.392-2.745-.528-2.672-7.309.971l-.424.228c-4 2.133-8.4 3.867-9.6 4-2.934 0-4.4-5.466-2.4-9.2 2.133-4.133.8-3.466-9.067 4-4.933 3.734-7.733 6.534-6.133 6 1.466-.4 3.733 0 5.2 1.067 2.4 1.733 2.4 2.4.666 11.333-1.466 8-1.466 10.934 0 17.867.934 4.533 2 11.6 2.267 15.6.533 6.533.267 7.733-2.8 10.533-1.733 1.733-5.333 3.467-7.733 4l-4.4.933 4.266 2.267c6.134 3.2 8.134 2.8 11.2-2.133 3.2-5.067 2.934-15.867-.666-31.334-1.6-6.933-1.867-10.933-.934-14 1.198-3.991 1.2-3.867 1.333 2.626l.001.041c.133 4.8.666 6.933 1.733 6.667 1.067-.133 2 2.4 2.533 6.933.8 5.467 1.867 8.134 5.334 11.6 16.4 16.933 45.866 26.4 81.866 26.267 22 0 35.467-2.533 64.667-11.867 16.267-5.2 21.067-6.133 30.667-6.267 7.333-.133 12.533.4 14.666 1.6 11.2 6 12.534 13.2 3.734 20.667-6.534 5.6-8.267 6-6.134 1.467.8-1.867 2.134-3.334 2.8-3.334 2.534 0 6.267-4.4 6.267-7.333 0-4.133-5.067-8.267-12.4-10-8.133-2.133-24.8.267-33.867 4.933l-6.4 3.2 10-.8c5.467-.4 13.6-1.066 18.134-1.466 7.333-.667 8.4-.534 12.266 2.8 3.867 3.2 6.134 7.333 2.934 5.333-.8-.4-1.334.667-1.334 2.533 0 4.134-4.133 8.267-9.466 9.334-2.267.4-9.867.4-17.067 0-7.6-.534-14-.4-15.333.4-2.134 1.2-2 1.466.533 4.533 2.4 2.8 2.667 2.8 2.133.533-.8-2.533-.266-2.666 15.334-2.266 12.533.4 16.666 0 19.066-1.467 2.934-2 3.734-1.733 13.6 3.067 13.734 6.666 22.934 15.866 29.6 29.2 4.667 9.6 4.934 10.666 4.934 23.466 0 12.934-.267 13.867-5.067 23.6-8.533 17.467-21.467 26.267-39.867 27.467-8.666.533-11.2.133-16.4-2.4-11.6-5.6-17.6-18-13.2-27.333 5.867-12.4 18.667-12.134 24 .533 2.534 6 5.334 3.867 4-3.067-.666-3.733-1.866-5.066-6.533-7.333-7.2-3.467-10.667-3.467-17.867 0-11.2 5.333-15.6 14.8-12.533 26.4 3.867 14.667 16.533 22.4 36.933 22.933l11.867.267 1.2-4.267 1.2-4.266 2.933 3.6 2.8 3.466 5.6-2.8c2.934-1.466 6.4-2.8 7.6-2.8 2.267 0 2.667-3.6.667-8.8l-1.467-3.6 4.8 3.6.085.066c4.451 3.403 4.603 3.519 7.915 1.134 3.6-2.666 4-4.533 2-8.533-1.733-3.067-.4-3.333 2.8-.4 2.134 1.867 2.534 1.867 5.2-.8l2.934-2.933-2.934-4.134c-1.866-2.4-2.266-3.733-1.2-3.333 6.534 2.533 7.867 2.533 7.867.4 0-1.2.933-4 2.133-6.267 2.134-4 2-4.133-2.666-8-2.667-2.133-4.8-4.4-4.8-5.066 0-.534 2.533-1.467 5.733-1.867l5.733-.933-.266-6.267c-.134-6-.4-6.4-6-9.333L400 153.117l6.133.8 6.267.8-1.733-4.933c-1.734-5.334-11.067-11.734-18.934-13.334-2.4-.4-4-1.333-3.6-2 1.2-2 10.934-6.533 13.867-6.533 1.6 0 2.667-.4 2.4-1.067-.082-.164-.254-.52-.491-1.012a372.524 372.524 0 0 0-2.309-4.721c-2.267-5.2-5.467-6.4-18.267-6.667l-6-.133 5.334-2.533c2.933-1.334 7.333-2.534 9.6-2.534h4.4l-2.4-4.666-2.267-4.8-15.6.4-15.6.4 3.467-3.6c1.866-2 6.4-4.8 10.266-6.4 3.734-1.467 7.867-3.334 9.067-4 4.133-2.267 6.667-1.6 6.267 1.6-.534 3.867 2.266 9.067 4.933 9.067 1.333 0 1.733.933 1.067 3.333-.667 2.8-.4 3.333 2 3.333 2.933 0 3.733 1.867 1.466 3.333-1.466.934.667 4.667 2.4 4.4 2.534-.266 3.067.4 1.6 2.267-1.866 2.267-.666 4.667 2.267 4.667 1.6 0 1.733.4.4 2-1.733 2.133-.8 4.666 2 4.666 1.467 0 1.733 1.067 1.067 4-.534 3.2-.267 4 1.6 4 1.866 0 2 .4.666 2-1.333 1.6-1.333 2.4.134 4.134 1.066 1.2 1.6 3.6 1.466 5.333-.266 1.733.134 3.2.934 3.2.933 0 1.2 1.333.666 3.467-.533 2.266-.266 3.866.934 4.533 1.333.933 1.333 1.467-.134 3.333-1.6 2-1.6 2.534.534 4 2.266 1.734 2.266 1.867-.134 3.2-1.866 1.067-2.133 1.867-.933 3.734 1.067 1.733 1.067 3.066 0 4.666-.933 1.734-.933 2.8.133 3.867 1.067 1.067.8 2.133-1.2 4.133-2.266 2.267-2.4 2.934-.933 3.867 1.467 1.067 1.467 1.467-.533 2.667-1.867 1.066-2.267 2.4-1.6 4.8.533 2.266.266 3.066-.8 2.4-2-1.334-4 2-3.067 5.066.533 1.6.133 2.267-1.067 2.134-.933-.134-5.466 3.466-10.133 8-9.2 9.2-22.4 16.266-34.667 18.933-11.333 2.267-30.133.933-38.666-2.8-15.867-6.933-24.667-26-18.134-39.067 8.267-16.4 29.334-21.6 40.934-10.133 3.6 3.6 3.866 4.667 3.333 10.667-1.333 13.2-14 19.6-22.133 11.333-2.934-2.8-3.334-4-2.267-6.933 1.6-4.267 8-7.067 10.4-4.667 1.2 1.2 1.067 2.267-.133 4.267-1.6 2.4-1.467 2.666.666 2.266 3.2-.533 3.734-4.533 1.2-8.4-4.933-7.466-18.133-1.733-18.133 7.867 0 14.533 25.867 23.867 43.2 15.467 21.333-10.267 26-48.267 8.933-72.134-8.533-12-18.933-18.533-33.466-21.2-7.734-1.466-26.667-.8-26.667.934 0 .266 2.533 4.666 5.733 9.466 3.2 4.934 6.534 10.934 7.6 13.467 3.067 7.6 2.134 25.467-1.333 25.467-.8 0-2.667 1.333-4.267 2.933l-2.8 2.8-3.066-3.467c-2.534-2.933-4-6.4-7.867-19.2-.4-1.2-2.267-.933-6.667 1.067-6.666 2.933-12.266 2.533-13.6-.933-1.2-3.067 3.2-6.934 10.4-8.667 3.6-.933 7.467-2.667 8.534-3.867 1.733-1.866 1.333-2.933-2.8-9.2-2.667-3.866-4.4-7.333-4-7.733 1.333-1.333 5.6 3.333 8.933 9.6l3.067 5.867-3.067 3.333c-1.6 1.733-5.6 3.867-8.667 4.667-6 1.466-11.066 5.466-7.066 5.466 1.066 0 4.133-.933 6.666-2 2.667-1.066 5.734-2 6.8-2 2.4 0 6.534 7.467 8.667 15.734 1.6 5.6 4.533 7.466 5.867 3.733.4-1.067.266-3.867-.4-6.267-1.734-6-.667-6.4 1.333-.533.933 2.667 2.267 4.533 3.067 4.267 2.266-.667 2.533-11.867.4-17.867-3.2-9.2-16.267-27.733-22.534-31.867l-5.6-3.733 5.334-1.067c2.933-.533 13.466-.933 23.466-.666 16 .266 18.534 0 20.934-2.134 4-3.6 4.533-8.4 1.066-10-5.2-2.533-6.8-2.533-20.133-.8-7.333.934-18.267 1.734-24.267 1.867-6 0-12.4.534-14.266 1.334-5.867 2.133-4.267 8.666 4.133 17.466l4.667 4.933-3.734.667c-18.4 3.467-54.666 5.067-83.066 3.733l-23.2-1.2-5.467 3.334c-9.067 5.6-14.133 11.2-19.067 21.066-6 11.867-10.4 16.667-15.466 16.667-10 0-11.6-6-4.134-16.133 7.067-9.6 9.867-8.4 3.2 1.333-5.733 8.533-6.4 10.8-3.333 10.8 1.067 0 4.4-3.733 7.333-8.4 2.934-4.533 5.334-7.6 5.334-6.933 0 .8-.8 2.533-1.734 4-5.066 7.6-7.6 12.666-6.4 12.666 2.667 0 7.2-6.133 12.4-17.066 5.734-11.734 7.734-13.734 24.4-22.934 21.6-11.866 25.334-14.933 23.334-18.666-1.467-2.667-5.467-4.4-17.334-7.334-10-2.533-16-5.466-16-7.6 0-2.133-5.333-7.733-7.333-7.733-3.067 0-8.667 5.6-8.667 8.667 0 4 3.2 5.867 19.734 12 7.466 2.666 13.6 5.066 13.6 5.333 0 .133-4.667 3.6-10.534 7.733-8 5.867-11.466 7.6-15.2 7.6-6.8 0-18.133-2.533-23.6-5.333-4.266-2.267-5.466-2.267-14.666-.4-12.8 2.533-27.467 1.6-44-2.933C59.333 106.85 45.733 99.25 41.2 90.451c-1.067-2.134-2.667-3.867-3.6-3.867-.8 0-3.333-1.467-5.6-3.334l-4-3.333 3.2-2.666c1.733-1.467 3.867-2.667 4.8-2.667.933 0 2.133-1.6 2.533-3.467.534-1.867 3.2-5.867 6-8.933 2.934-3.2 5.467-7.6 6-10.267 1.334-7.867 5.334-12.8 13.334-16.666 6.4-3.067 8.666-3.6 15.733-3.067 7.976.654 8.13.538 17.06-6.13l.54-.403zm50.133-13.066c0-.934-.933-2.133-2.133-2.534a34.533 34.533 0 0 1-.458-.183h-.002c-.335-.136-.607-.246-.888-.323-1.225-.338-2.622-.055-10.1 1.46l-1.219.247c-8.933 1.733-19.6 7.466-33.066 17.6-3.2 2.4-6.8 4.4-7.867 4.4-1.467 0-.667 1.466 2.4 4.266 2.4 2.4 5.2 6.133 6 8.4 2.4 5.6 4 15.867 2.267 14.8-.667-.4-1.6-3.066-2.134-5.733C98.267 43.25 89.2 35.917 76.667 35.917c-15.734 0-25.334 12.533-23.6 30.667l.666 7.333-2.266-6.666-2.4-6.534-3.467 6c-2 3.334-3.6 7.067-3.6 8.267 0 1.333-1.067 2.267-2.533 2.267-1.334 0-3.2.933-4.134 2-1.466 1.733-.8 2.4 4.134 4.533 6.666 2.933 32.4 8.266 38.933 8 2.8-.134 3.333-.4 1.6-.8-1.467-.4-3.2-1.334-4-2-.933-1.067-.533-1.2 1.067-.533 1.333.4 4.533.8 7.066.8 6.134 0 5.734 1.866-1.2 6-6.933 4-9.6 4.266-5.066.666l3.066-2.666h-7.066c-4 0-12-.934-17.734-2-5.866-1.067-10.8-1.734-11.2-1.467-1.466 1.466 6.534 7.333 13.867 10.133 17.333 6.4 27.2 8.4 43.867 8.533 13.6 0 17.066-.4 23.6-2.933 13.733-5.467 13.466-9.2-1.467-20.4-5.2-3.867-9.2-7.2-8.933-7.6.4-.266 4.133 1.6 8.4 4.267 9.6 5.866 17.066 6.533 21.466 1.733 3.6-3.867 3.6-7.066.267-20.4-2.8-10.533-2.667-16.133.267-25.6 1.6-5.333-.534-8.8-4.8-7.467-5.867 1.734-21.067 11.6-28.8 18.667-4.4 4.133-8 6.934-8 6.267 0-4 13.866-18.8 24.533-26 10-6.934 18.133-14.267 18.133-16.4zm-6 11.6c14.134-9.334 16.8-11.867 13.867-13.734-1.067-.666-3.2-1.2-4.8-1.2-2.133 0-2.667.667-2.133 2.667.666 2.8-4.267 8.4-14.267 16.4-2.533 2 .8.134 7.333-4.133zm16 55.733c1.467-1.2 1.6-2.267.4-4.533-2.266-4.4-2.4-4.267-2.4 1.2 0 4.266.267 4.8 2 3.333zm11.334 22.133c-5.467-2.666-10.934-5.6-12.134-6.4-1.2-.933-2.4-2.4-2.666-3.333-.4-1.066-1.6-.666-3.734 1.067-3.466 2.8-7.066 3.2-10.933 1.067-2.4-1.2-2.533-.934-1.733 2 .533 2.266 0 3.999-2.267 6.266l-2.933 2.933 2.8-.666c1.6-.534 2.933-.534 2.933-.267 0 1.067-7.2 3.467-16 5.2-6.533 1.333-7.467 1.733-4 1.867 2.533 0 7.333-.534 10.533-1.334 4.8-1.066 6.934-.8 13.2 1.467 4.134 1.6 10.534 3.467 14.134 4.133 5.866 1.067 7.2.8 12-2l1.119-.665c5.364-3.189 7.961-4.732 7.882-6.122-.075-1.305-2.508-2.475-7.224-4.742l-.005-.003-.065-.031-.057-.028-.016-.007-.499-.24-.335-.162zm211.733-4.8c6 0 6.267-.266 4.267-4.133-1.734-3.067-1.867-3.067-8.4-.267-6.134 2.534-4.534 4.4 4.133 4.4zm-165.067 3.6c-2.533-.133-5.466-1.066-6.4-2-2.933-2.666-4.266-1.866-2.8 1.867 1.734 4.667-.933 8.667-8.8 13.2-3.333 2-6 3.867-6 4.133 0 1.334 2.534.134 9.067-4 8-5.333 8.8-4.8 2.667 1.6l-4.4 4.4 29.333-.266c25.2-.267 53.733-1.734 54.8-2.934.267-.133-.267-2.666-.933-5.6-.8-2.933-1.734-6.933-2.134-9.066l-.08-.424c-.21-1.107-.353-1.866-.8-2.337-.973-1.028-3.386-.691-11.058.378h-.001c-.568.08-1.166.162-1.794.249-8.667 1.067-36.133 1.6-50.667.8zm171.734 74.134c3.733-4.934.4-22.934-6.667-35.734-2.667-4.933-15.733-17.866-15.733-15.6 0 .934.4 1.6 1.066 1.6 1.867 0 14.667 20.667 16.8 27.067 1.2 3.467 2.267 10.533 2.4 15.733.267 8.267.534 9.067 2.134 6.934zm11.6-39.067c4.666 3.067 7.333 3.333 7.333.933 0-3.466-4.4-6.133-8-4.666l-3.2 1.2 3.867 2.533zM211.733 2.984c1.067 2.8 4.934 1.466 4.934-1.6.133-1.867.266-1.867 1.866.133 2.267 2.933 4.267 3.067 5.334.133.8-2 1.066-2 2.533.267 1.733 2.133 1.867 2.133 4.133 0 1.734-1.733 2.667-2 3.867-.8 2 2 8.533 1.867 9.333-.267.4-1.2 1.467-1.066 4.534.667 3.466 2 4.266 2 7.733.267 3.2-1.6 3.867-1.6 5.2 0 1.733 2.266 5.867 2.933 9.333 1.466 1.734-.8 3.067-.4 4.267 1.334 1.467 1.866 2.8 2.133 7.2 1.466 3.333-.533 5.333-.266 5.333.534 0 2.4 7.067 4.4 9.734 2.666 2-1.2 2.533-1.066 3.2 1.2.666 2.8 5.866 4.667 9.866 3.467 1.734-.533 2.534-.267 2.534 1.2 0 2.533 6.4 5.867 9.733 5.2 1.333-.4 2.267.133 2.267 1.333 0 2.667 6 6.4 8.533 5.467 1.333-.533 2.4.133 2.933 1.6 1.734 4.8 4.8 7.2 8 6.4 2.667-.667 3.2-.267 3.2 2.4 0 4 2.267 6.4 6.267 6.4 2 0 3.067.8 3.067 2.267.133 3.6 3.333 7.066 6.533 7.066 2 0 2.8.8 2.8 2.934.133 4.266 3.067 7.733 6.533 7.733 2.4 0 2.8.533 2.134 2.533-1.067 3.6 2 8.134 5.733 8.134 2.533 0 2.933.533 2.267 2.666-.4 1.334-.134 3.734.666 5.334 1.2 2.133 1.067 2.666-.666 2.666-1.067 0-3.334-2.666-4.934-5.866-2.533-5.334-3.066-5.734-6.266-4.8-4.667 1.466-17.867 2.533-16.534 1.333.442-.441 3.077-2.254 6.165-4.378l.003-.002.002-.002h.001l.03-.02.717-.494 1.216-.837c6.266-4 6.8-4.8 4.4-5.6-1.467-.4-4.4-3.067-6.4-6-3.2-4.267-4.267-4.8-6.267-3.734-2 1.2-3.733.134-9.867-6.133-5.866-5.867-7.2-7.733-5.866-9.067 2.4-2.4 2-3.733-1.2-3.733-2 0-2.534.667-2 2 1.066 2.8.4 2.533-6.667-2.4-4.133-2.8-5.467-4.4-4-4.667 1.2-.266 2.133-1.066 2.133-1.866s-1.2-1.067-2.933-.4c-4.4 1.2-4.933 1.2-13.733-2.134l-.844-.311c-5.902-2.182-7.8-2.883-7.84-3.678-.019-.377.38-.775.968-1.362l.116-.115c2.933-2.934 1.6-4.8-3.867-5.734-2.933-.533-8.667-2.133-12.667-3.466-7.733-2.8-10.666-2.267-14.133 2.666-1.467 2.134-3.067 2.267-12.667 1.734-9.466-.534-10.666-.8-8.933-2.534.933-1.066 1.867-3.333 1.867-5.2 0-3.066-.267-3.066-6.934-2.533-3.866.267-7.733-.133-8.666-.933-1.334-1.067-1.734-.134-1.734 4.533v6l-12 1.6c-6.533.8-13.6 1.867-15.733 2.267-3.067.666-3.733.266-3.867-2.267-.133-1.6-1.466-4.267-2.933-5.733-2.533-2.4-2.933-2.534-5.067-.534-1.333 1.2-2.933 2.267-3.733 2.4-.667 0-3.467.667-6 1.334-2.933.8-5.067.8-5.867 0-.933-.934-.666-1.334.4-1.334 1.067 0 1.467-.8.934-2-.8-2.133 1.2-2.8 2.533-.666 1.067 1.733 4.667.133 4.667-2.267 0-1.6.4-1.733 2-.4 2.266 1.867 4.666.667 4.666-2.4 0-1.6.4-1.733 1.6-.533 2.267 2.266 5.067 2 5.067-.4 0-1.734.4-1.734 2.667-.4 2.133 1.466 2.933 1.333 4.4-.8 1.6-2.267 1.866-2.267 2.666-.4zm7.6 11.2c8.267-1.2 11.467-2.267 11.734-3.867.266-1.333-.8-2.267-2.934-2.667-1.866-.4-3.6-.533-3.866-.266-.134.266-3.334.533-6.934.666-3.733.267-8 1.067-9.6 1.867-2.533 1.333-2.8 2-1.333 3.867 1.467 2 2.667 2 12.933.4zm43.334-.934c8.666 0 11.866-3.066 4.4-4.4-2.4-.4-5.467-1.066-6.667-1.6-1.6-.666-2.667-.266-3.2 1.067-1.2 3.333.533 4.933 5.467 4.933zm-198 28.934c-9.734 8.8-6.4 24.267 6.133 28.4 11.867 4 24.533-8.667 20.533-20.534C87.6 38.717 73.2 34.584 64.667 42.184zm17.466 1.733c1.334.8 3.467 3.2 4.667 5.467 5.2 10.267-5.2 21.2-15.867 16.666-5.6-2.266-7.6-5.6-7.6-12.133 0-8.933 10.267-14.533 18.8-10zm-9.466 12.667c-1.334-1.6-1.334-2.4 0-4 .933-1.067 2.133-2 2.666-2 2 0 4.267 4 3.467 6-.933 2.533-4 2.533-6.133 0zm166-42c-2 .933-1.334 1.2 3.066 1.2 3.467.133 5.467-.4 4.934-1.2-.934-1.6-4.267-1.6-8 0zm46.666 4.666c-5.733-1.2-10.8-2.4-11.2-2.666-1.2-1.2 9.067-.667 16.134.933 3.866.8 8 2.4 9.066 3.467 1.734 1.6 1.734 1.733-.8 1.066-1.6-.533-7.466-1.733-13.2-2.8zm-96 3.334c-5.466 2.8-3.866 2.533 6.134-.534 4.4-1.333 5.066-1.866 2.533-2-1.867 0-5.733 1.067-8.667 2.534zm11.752 3.318c1.686-1.494 4.402-1.826 12.248-2.785 5.615-.674 10.946-1.347 13.126-1.623h.003l.447-.057.424-.053c1.067 0-.133 1.6-2.666 3.733-1.728 1.432-2.816 2.334-3.502 3.477C220 30.538 220 33.18 220 40.317v11.334l-6.267 6.666c-3.466 3.733-6.666 8.134-7.066 9.867-.229.913-.587 2.565-.977 4.36-.293 1.35-.604 2.78-.89 4.04l-1.067 5.333-1.6-3.867c-1.2-3.066-1.066-5.333.534-10.8 2.933-10.133 2.533-14.266-2.267-24l-4.4-8.8 2.667-4.933c.923-1.707 1.526-2.824 2.418-3.615zm11.982 28.948c3.2-3.333 3.6-4.933 4.133-16l.667-12.266h-5.6c-5.734 0-10.534 2.8-12 6.933-.4 1.2.666 5.067 2.4 8.4 1.866 3.334 3.733 8.533 4.133 11.334.533 2.933 1.333 5.333 1.733 5.333.534 0 2.534-1.734 4.534-3.734zM232 22.584c-.533.8 1.6 1.333 5.2 1.333 3.333 0 6.133-.667 6.133-1.333 0-.8-2.4-1.334-5.2-1.334-2.933 0-5.733.534-6.133 1.334zm14.267 19.733c2.533-7.6 2.666-13.6.4-18.8-.934-2.133-.534-2.4 3.466-1.733 2.534.4 8 1.067 12.267 1.466 8.133.934 10.267 2.8 10.267 9.067 0 3.6-2.267 5.867-10.4 10.4-7.334 4-8.8 6.934-11.867 22.534L248 77.784l-2.267-13.867c-2.266-13.467-2.266-13.867.534-21.6zm16.666-2.933c6-3.067 7.6-6.534 4.667-9.867-2.267-2.666-13.6-5.2-15.333-3.466-.534.533-.934 3.066-.934 5.733-.133 2.666-.933 7.2-2 10.133-1.066 2.933-2 7.733-2 10.667.134 4.933.267 5.2 2 2.8 1.067-1.467 2-3.6 2-4.8 0-2.667 5.867-8.267 11.6-11.2zm13.6-12c2.534 1.2 7.467 2.4 11.067 2.8 4.933.533 6.4 1.2 5.867 2.666-.534 1.067-.8 3.734-.8 6 0 2.934-1.6 5.6-6.134 10.267-7.066 7.067-8.533 10.134-8.533 17.6v5.467l4.4-5.867c3.067-4.133 7.067-7.066 13.733-10.4 5.334-2.533 10.667-5.467 11.867-6.533 1.867-1.733 7.333-10.934 7.333-12.667 0-1.466-36.666-11.6-41.2-11.333-1.2 0-.133.933 2.4 2zm31.2 10.133c5.334 2.667.267 10-10 14.4-3.866 1.6-9.066 4.4-11.333 6.267-6.133 4.533-5.467 1.867 1.467-6.267 3.2-3.733 6.266-8.933 6.666-11.333.534-2.4 1.6-4.8 2.534-5.067 1.866-.8 7.2.267 10.666 2zm-126.4-7.067 5.334-1.733c2.933-1.066 6.266-2 7.333-2 4-.133-1.733 2.267-7.333 3.067l-5.334.667zm-6.533 1.334c-1.067 1.6 1.2 7.467 4.4 12 2.533 3.467 3.467 8 3.067 14.8-.113 1.356-.178 2.137-.49 2.253-.424.156-1.303-.918-3.377-3.453-2.933-3.334-5.6-4.8-11.733-6.267-4.4-.933-9.2-1.866-10.667-1.866-4.933.133 1.333 2.666 10 4.133 4.267.8 8.533 2.267 9.333 3.066.667.934 1.867 4.8 2.667 8.534 1.067 6.267 4.667 14.933 5.867 14.933.266 0 .266-2.4-.134-5.2-.4-2.933 0-9.2.934-13.867 1.333-7.333 1.2-9.2-.667-13.733-1.2-2.8-3.333-6.533-4.933-8.133-1.734-1.867-2.534-4-2-5.733.666-2.667-.934-3.734-2.267-1.467zm154.8 11.6c-1.067 1.2-9.867-2-11.6-4.267-.933-.933-1.333-1.866-.933-1.866 2 0 13.2 5.466 12.533 6.133zm-2 5.6c-2.933 2.8-4.267 5.466-4.933 10.4-1.2 7.733-2.534 10.666-7.067 15.466-5.867 6.267-1.2 4.134 5.067-2.4 6.4-6.4 12.666-10.266 23.066-13.733l6.4-2.267-7.733-5.6c-4.133-3.066-8.4-5.6-9.2-5.6-.933 0-3.333 1.734-5.6 3.734zm12.267 4.267c2.266 2.266 2.133 2.4-4.934 5.866-4.133 1.867-8 3.467-8.8 3.467-2.533 0 1.2-11.334 4.134-12.4 2.533-1.067 6.666.267 9.6 3.067zm-190 74.799c5.466-.933 10.8-2.133 12-2.8 2.8-1.6 3.733-.4 1.333 1.867-2.8 2.533-10.133 4.8-16.133 4.8-6.267 0-12.8 2.667-16.267 6.533-4.133 4.534-2 4.267 6.133-.8 4.134-2.533 8.134-4.266 8.934-3.733 2.133 1.2 1.866 5.067-.4 4.267-.934-.4-4.4 1.066-7.6 3.2-9.467 6.266-15.2 4.8-11.2-2.934 2.666-5.2 10-8.4 23.2-10.4z" fill="#000"/><path fill-rule="evenodd" clip-rule="evenodd" d="M97.2 25.65c11.2-8.533 25.333-15.6 36.267-18.266 12.266-2.934 24-2.667 27.333.666 2.8 2.8 2.667 5.867-.933 11.467-2.267 3.6-2.4 5.733-.4 5.733.8 0 1.733-1.2 2.133-2.666.4-1.734 1.733-2.534 3.6-2.267 1.867.134 2.8-.4 2.667-2-.134-1.6.8-2.133 3.333-2 2.667.267 3.333-.267 3.067-2.133-.267-1.2.133-2.267.8-2.267 3.6 0 6.666 10.267 4.4 14.4-.8 1.467-2.667 2.933-4.267 3.334-1.279.32-1.945.486-2.056.307-.12-.193.413-.792 1.523-2.04 1.2-1.334 2-3.734 1.733-5.2-.392-2.745-.528-2.672-7.309.971l-.424.228c-4 2.133-8.4 3.867-9.6 4-2.934 0-4.4-5.466-2.4-9.2 2.133-4.133.8-3.466-9.067 4-4.933 3.734-7.733 6.534-6.133 6 1.466-.4 3.733 0 5.2 1.067 2.4 1.733 2.4 2.4.666 11.333-1.466 8-1.466 10.934 0 17.867.934 4.533 2 11.6 2.267 15.6.533 6.533.267 7.733-2.8 10.533-1.733 1.733-5.333 3.467-7.733 4l-4.4.933 4.266 2.267c6.134 3.2 8.134 2.8 11.2-2.133 3.2-5.067 2.934-15.867-.666-31.334-1.6-6.933-1.867-10.933-.934-14 1.198-3.991 1.2-3.867 1.333 2.626l.001.041c.133 4.8.666 6.933 1.733 6.667 1.067-.133 2 2.4 2.533 6.933.8 5.467 1.867 8.134 5.334 11.6 16.4 16.933 45.866 26.4 81.866 26.267 22 0 35.467-2.533 64.667-11.867 16.267-5.2 21.067-6.133 30.667-6.267 7.333-.133 12.533.4 14.666 1.6 11.2 6 12.534 13.2 3.734 20.667-6.534 5.6-8.267 6-6.134 1.467.8-1.867 2.134-3.334 2.8-3.334 2.534 0 6.267-4.4 6.267-7.333 0-4.133-5.067-8.267-12.4-10-8.133-2.133-24.8.267-33.867 4.933l-6.4 3.2 10-.8c5.467-.4 13.6-1.066 18.134-1.466 7.333-.667 8.4-.534 12.266 2.8 3.867 3.2 6.134 7.333 2.934 5.333-.8-.4-1.334.667-1.334 2.533 0 4.134-4.133 8.267-9.466 9.334-2.267.4-9.867.4-17.067 0-7.6-.534-14-.4-15.333.4-2.134 1.2-2 1.466.533 4.533 2.4 2.8 2.667 2.8 2.133.533-.8-2.533-.266-2.666 15.334-2.266 12.533.4 16.666 0 19.066-1.467 2.934-2 3.734-1.733 13.6 3.067 13.734 6.666 22.934 15.866 29.6 29.2 4.667 9.6 4.934 10.666 4.934 23.466 0 12.934-.267 13.867-5.067 23.6-8.533 17.467-21.467 26.267-39.867 27.467-8.666.533-11.2.133-16.4-2.4-11.6-5.6-17.6-18-13.2-27.333 5.867-12.4 18.667-12.134 24 .533 2.534 6 5.334 3.867 4-3.067-.666-3.733-1.866-5.066-6.533-7.333-7.2-3.467-10.667-3.467-17.867 0-11.2 5.333-15.6 14.8-12.533 26.4 3.867 14.667 16.533 22.4 36.933 22.933l11.867.267 1.2-4.267 1.2-4.266 2.933 3.6 2.8 3.466 5.6-2.8c2.934-1.466 6.4-2.8 7.6-2.8 2.267 0 2.667-3.6.667-8.8l-1.467-3.6 4.8 3.6.085.066c4.451 3.403 4.603 3.519 7.915 1.134 3.6-2.666 4-4.533 2-8.533-1.733-3.067-.4-3.333 2.8-.4 2.134 1.867 2.534 1.867 5.2-.8l2.934-2.933-2.934-4.134c-1.866-2.4-2.266-3.733-1.2-3.333 6.534 2.533 7.867 2.533 7.867.4 0-1.2.933-4 2.133-6.267 2.134-4 2-4.133-2.666-8-2.667-2.133-4.8-4.4-4.8-5.066 0-.534 2.533-1.467 5.733-1.867l5.733-.933-.266-6.267c-.134-6-.4-6.4-6-9.333L400 153.117l6.133.8 6.267.8-1.733-4.933c-1.734-5.334-11.067-11.734-18.934-13.334-2.4-.4-4-1.333-3.6-2 1.2-2 10.934-6.533 13.867-6.533 1.6 0 2.667-.4 2.4-1.067-.082-.164-.254-.52-.491-1.012a372.524 372.524 0 0 0-2.309-4.721c-2.267-5.2-5.467-6.4-18.267-6.667l-6-.133 5.334-2.533c2.933-1.334 7.333-2.534 9.6-2.534h4.4l-2.4-4.666-2.267-4.8-15.6.4-15.6.4 3.467-3.6c1.866-2 6.4-4.8 10.266-6.4 3.734-1.467 7.867-3.334 9.067-4 4.133-2.267 6.667-1.6 6.267 1.6-.534 3.867 2.266 9.067 4.933 9.067 1.333 0 1.733.933 1.067 3.333-.667 2.8-.4 3.333 2 3.333 2.933 0 3.733 1.867 1.466 3.333-1.466.934.667 4.667 2.4 4.4 2.534-.266 3.067.4 1.6 2.267-1.866 2.267-.666 4.667 2.267 4.667 1.6 0 1.733.4.4 2-1.733 2.133-.8 4.666 2 4.666 1.467 0 1.733 1.067 1.067 4-.534 3.2-.267 4 1.6 4 1.866 0 2 .4.666 2-1.333 1.6-1.333 2.4.134 4.134 1.066 1.2 1.6 3.6 1.466 5.333-.266 1.733.134 3.2.934 3.2.933 0 1.2 1.333.666 3.467-.533 2.266-.266 3.866.934 4.533 1.333.933 1.333 1.467-.134 3.333-1.6 2-1.6 2.534.534 4 2.266 1.734 2.266 1.867-.134 3.2-1.866 1.067-2.133 1.867-.933 3.734 1.067 1.733 1.067 3.066 0 4.666-.933 1.734-.933 2.8.133 3.867 1.067 1.067.8 2.133-1.2 4.133-2.266 2.267-2.4 2.934-.933 3.867 1.467 1.067 1.467 1.467-.533 2.667-1.867 1.066-2.267 2.4-1.6 4.8.533 2.266.266 3.066-.8 2.4-2-1.334-4 2-3.067 5.066.533 1.6.133 2.267-1.067 2.134-.933-.134-5.466 3.466-10.133 8-9.2 9.2-22.4 16.266-34.667 18.933-11.333 2.267-30.133.933-38.666-2.8-15.867-6.933-24.667-26-18.134-39.067 8.267-16.4 29.334-21.6 40.934-10.133 3.6 3.6 3.866 4.667 3.333 10.667-1.333 13.2-14 19.6-22.133 11.333-2.934-2.8-3.334-4-2.267-6.933 1.6-4.267 8-7.067 10.4-4.667 1.2 1.2 1.067 2.267-.133 4.267-1.6 2.4-1.467 2.666.666 2.266 3.2-.533 3.734-4.533 1.2-8.4-4.933-7.466-18.133-1.733-18.133 7.867 0 14.533 25.867 23.867 43.2 15.467 21.333-10.267 26-48.267 8.933-72.134-8.533-12-18.933-18.533-33.466-21.2-7.734-1.466-26.667-.8-26.667.934 0 .266 2.533 4.666 5.733 9.466 3.2 4.934 6.534 10.934 7.6 13.467 3.067 7.6 2.134 25.467-1.333 25.467-.8 0-2.667 1.333-4.267 2.933l-2.8 2.8-3.066-3.467c-2.534-2.933-4-6.4-7.867-19.2-.4-1.2-2.267-.933-6.667 1.067-6.666 2.933-12.266 2.533-13.6-.933-1.2-3.067 3.2-6.934 10.4-8.667 3.6-.933 7.467-2.667 8.534-3.867 1.733-1.866 1.333-2.933-2.8-9.2-2.667-3.866-4.4-7.333-4-7.733 1.333-1.333 5.6 3.333 8.933 9.6l3.067 5.867-3.067 3.333c-1.6 1.733-5.6 3.867-8.667 4.667-6 1.466-11.066 5.466-7.066 5.466 1.066 0 4.133-.933 6.666-2 2.667-1.066 5.734-2 6.8-2 2.4 0 6.534 7.467 8.667 15.734 1.6 5.6 4.533 7.466 5.867 3.733.4-1.067.266-3.867-.4-6.267-1.734-6-.667-6.4 1.333-.533.933 2.667 2.267 4.533 3.067 4.267 2.266-.667 2.533-11.867.4-17.867-3.2-9.2-16.267-27.733-22.534-31.867l-5.6-3.733 5.334-1.067c2.933-.533 13.466-.933 23.466-.666 16 .266 18.534 0 20.934-2.134 4-3.6 4.533-8.4 1.066-10-5.2-2.533-6.8-2.533-20.133-.8-7.333.934-18.267 1.734-24.267 1.867-6 0-12.4.534-14.266 1.334-5.867 2.133-4.267 8.666 4.133 17.466l4.667 4.933-3.734.667c-18.4 3.467-54.666 5.067-83.066 3.733l-23.2-1.2-5.467 3.334c-9.067 5.6-14.133 11.2-19.067 21.066-6 11.867-10.4 16.667-15.466 16.667-10 0-11.6-6-4.134-16.133 7.067-9.6 9.867-8.4 3.2 1.333-5.733 8.533-6.4 10.8-3.333 10.8 1.067 0 4.4-3.733 7.333-8.4 2.934-4.533 5.334-7.6 5.334-6.933 0 .8-.8 2.533-1.734 4-5.066 7.6-7.6 12.666-6.4 12.666 2.667 0 7.2-6.133 12.4-17.066 5.734-11.734 7.734-13.734 24.4-22.934 21.6-11.866 25.334-14.933 23.334-18.666-1.467-2.667-5.467-4.4-17.334-7.334-10-2.533-16-5.466-16-7.6 0-2.133-5.333-7.733-7.333-7.733-3.067 0-8.667 5.6-8.667 8.667 0 4 3.2 5.867 19.734 12 7.466 2.666 13.6 5.066 13.6 5.333 0 .133-4.667 3.6-10.534 7.733-8 5.867-11.466 7.6-15.2 7.6-6.8 0-18.133-2.533-23.6-5.333-4.266-2.267-5.466-2.267-14.666-.4-12.8 2.533-27.467 1.6-44-2.933C59.333 106.85 45.733 99.25 41.2 90.451c-1.067-2.134-2.667-3.867-3.6-3.867-.8 0-3.333-1.467-5.6-3.334l-4-3.333 3.2-2.666c1.733-1.467 3.867-2.667 4.8-2.667.933 0 2.133-1.6 2.533-3.467.534-1.867 3.2-5.867 6-8.933 2.934-3.2 5.467-7.6 6-10.267 1.334-7.867 5.334-12.8 13.334-16.666 6.4-3.067 8.666-3.6 15.733-3.067 7.976.654 8.13.538 17.06-6.13l.54-.403zm50.133-13.066c0-.934-.933-2.133-2.133-2.534a34.533 34.533 0 0 1-.458-.183h-.002c-.335-.136-.607-.246-.888-.323-1.225-.338-2.622-.055-10.1 1.46l-1.219.247c-8.933 1.733-19.6 7.466-33.066 17.6-3.2 2.4-6.8 4.4-7.867 4.4-1.467 0-.667 1.466 2.4 4.266 2.4 2.4 5.2 6.133 6 8.4 2.4 5.6 4 15.867 2.267 14.8-.667-.4-1.6-3.066-2.134-5.733C98.267 43.25 89.2 35.917 76.667 35.917c-15.734 0-25.334 12.533-23.6 30.667l.666 7.333-2.266-6.666-2.4-6.534-3.467 6c-2 3.334-3.6 7.067-3.6 8.267 0 1.333-1.067 2.267-2.533 2.267-1.334 0-3.2.933-4.134 2-1.466 1.733-.8 2.4 4.134 4.533 6.666 2.933 32.4 8.266 38.933 8 2.8-.134 3.333-.4 1.6-.8-1.467-.4-3.2-1.334-4-2-.933-1.067-.533-1.2 1.067-.533 1.333.4 4.533.8 7.066.8 6.134 0 5.734 1.866-1.2 6-6.933 4-9.6 4.266-5.066.666l3.066-2.666h-7.066c-4 0-12-.934-17.734-2-5.866-1.067-10.8-1.734-11.2-1.467-1.466 1.466 6.534 7.333 13.867 10.133 17.333 6.4 27.2 8.4 43.867 8.533 13.6 0 17.066-.4 23.6-2.933 13.733-5.467 13.466-9.2-1.467-20.4-5.2-3.867-9.2-7.2-8.933-7.6.4-.266 4.133 1.6 8.4 4.267 9.6 5.866 17.066 6.533 21.466 1.733 3.6-3.867 3.6-7.066.267-20.4-2.8-10.533-2.667-16.133.267-25.6 1.6-5.333-.534-8.8-4.8-7.467-5.867 1.734-21.067 11.6-28.8 18.667-4.4 4.133-8 6.934-8 6.267 0-4 13.866-18.8 24.533-26 10-6.934 18.133-14.267 18.133-16.4zm-6 11.6c14.134-9.334 16.8-11.867 13.867-13.734-1.067-.666-3.2-1.2-4.8-1.2-2.133 0-2.667.667-2.133 2.667.666 2.8-4.267 8.4-14.267 16.4-2.533 2 .8.134 7.333-4.133zm16 55.733c1.467-1.2 1.6-2.267.4-4.533-2.266-4.4-2.4-4.267-2.4 1.2 0 4.266.267 4.8 2 3.333zm11.334 22.133c-5.467-2.666-10.934-5.6-12.134-6.4-1.2-.933-2.4-2.4-2.666-3.333-.4-1.066-1.6-.666-3.734 1.067-3.466 2.8-7.066 3.2-10.933 1.067-2.4-1.2-2.533-.934-1.733 2 .533 2.266 0 3.999-2.267 6.266l-2.933 2.933 2.8-.666c1.6-.534 2.933-.534 2.933-.267 0 1.067-7.2 3.467-16 5.2-6.533 1.333-7.467 1.733-4 1.867 2.533 0 7.333-.534 10.533-1.334 4.8-1.066 6.934-.8 13.2 1.467 4.134 1.6 10.534 3.467 14.134 4.133 5.866 1.067 7.2.8 12-2l1.119-.665c5.364-3.189 7.961-4.732 7.882-6.122-.075-1.305-2.508-2.475-7.224-4.742l-.005-.003-.065-.031-.057-.028-.016-.007-.499-.24-.335-.162zm211.733-4.8c6 0 6.267-.266 4.267-4.133-1.734-3.067-1.867-3.067-8.4-.267-6.134 2.534-4.534 4.4 4.133 4.4zm-165.067 3.6c-2.533-.133-5.466-1.066-6.4-2-2.933-2.666-4.266-1.866-2.8 1.867 1.734 4.667-.933 8.667-8.8 13.2-3.333 2-6 3.867-6 4.133 0 1.334 2.534.134 9.067-4 8-5.333 8.8-4.8 2.667 1.6l-4.4 4.4 29.333-.266c25.2-.267 53.733-1.734 54.8-2.934.267-.133-.267-2.666-.933-5.6-.8-2.933-1.734-6.933-2.134-9.066l-.08-.424c-.21-1.107-.353-1.866-.8-2.337-.973-1.028-3.386-.691-11.058.378h-.001c-.568.08-1.166.162-1.794.249-8.667 1.067-36.133 1.6-50.667.8zm171.734 74.134c3.733-4.934.4-22.934-6.667-35.734-2.667-4.933-15.733-17.866-15.733-15.6 0 .934.4 1.6 1.066 1.6 1.867 0 14.667 20.667 16.8 27.067 1.2 3.467 2.267 10.533 2.4 15.733.267 8.267.534 9.067 2.134 6.934zm11.6-39.067c4.666 3.067 7.333 3.333 7.333.933 0-3.466-4.4-6.133-8-4.666l-3.2 1.2 3.867 2.533zM211.733 2.984c1.067 2.8 4.934 1.466 4.934-1.6.133-1.867.266-1.867 1.866.133 2.267 2.933 4.267 3.067 5.334.133.8-2 1.066-2 2.533.267 1.733 2.133 1.867 2.133 4.133 0 1.734-1.733 2.667-2 3.867-.8 2 2 8.533 1.867 9.333-.267.4-1.2 1.467-1.066 4.534.667 3.466 2 4.266 2 7.733.267 3.2-1.6 3.867-1.6 5.2 0 1.733 2.266 5.867 2.933 9.333 1.466 1.734-.8 3.067-.4 4.267 1.334 1.467 1.866 2.8 2.133 7.2 1.466 3.333-.533 5.333-.266 5.333.534 0 2.4 7.067 4.4 9.734 2.666 2-1.2 2.533-1.066 3.2 1.2.666 2.8 5.866 4.667 9.866 3.467 1.734-.533 2.534-.267 2.534 1.2 0 2.533 6.4 5.867 9.733 5.2 1.333-.4 2.267.133 2.267 1.333 0 2.667 6 6.4 8.533 5.467 1.333-.533 2.4.133 2.933 1.6 1.734 4.8 4.8 7.2 8 6.4 2.667-.667 3.2-.267 3.2 2.4 0 4 2.267 6.4 6.267 6.4 2 0 3.067.8 3.067 2.267.133 3.6 3.333 7.066 6.533 7.066 2 0 2.8.8 2.8 2.934.133 4.266 3.067 7.733 6.533 7.733 2.4 0 2.8.533 2.134 2.533-1.067 3.6 2 8.134 5.733 8.134 2.533 0 2.933.533 2.267 2.666-.4 1.334-.134 3.734.666 5.334 1.2 2.133 1.067 2.666-.666 2.666-1.067 0-3.334-2.666-4.934-5.866-2.533-5.334-3.066-5.734-6.266-4.8-4.667 1.466-17.867 2.533-16.534 1.333.442-.441 3.077-2.254 6.165-4.378l.003-.002.002-.002h.001l.03-.02.717-.494 1.216-.837c6.266-4 6.8-4.8 4.4-5.6-1.467-.4-4.4-3.067-6.4-6-3.2-4.267-4.267-4.8-6.267-3.734-2 1.2-3.733.134-9.867-6.133-5.866-5.867-7.2-7.733-5.866-9.067 2.4-2.4 2-3.733-1.2-3.733-2 0-2.534.667-2 2 1.066 2.8.4 2.533-6.667-2.4-4.133-2.8-5.467-4.4-4-4.667 1.2-.266 2.133-1.066 2.133-1.866s-1.2-1.067-2.933-.4c-4.4 1.2-4.933 1.2-13.733-2.134l-.844-.311c-5.902-2.182-7.8-2.883-7.84-3.678-.019-.377.38-.775.968-1.362l.116-.115c2.933-2.934 1.6-4.8-3.867-5.734-2.933-.533-8.667-2.133-12.667-3.466-7.733-2.8-10.666-2.267-14.133 2.666-1.467 2.134-3.067 2.267-12.667 1.734-9.466-.534-10.666-.8-8.933-2.534.933-1.066 1.867-3.333 1.867-5.2 0-3.066-.267-3.066-6.934-2.533-3.866.267-7.733-.133-8.666-.933-1.334-1.067-1.734-.134-1.734 4.533v6l-12 1.6c-6.533.8-13.6 1.867-15.733 2.267-3.067.666-3.733.266-3.867-2.267-.133-1.6-1.466-4.267-2.933-5.733-2.533-2.4-2.933-2.534-5.067-.534-1.333 1.2-2.933 2.267-3.733 2.4-.667 0-3.467.667-6 1.334-2.933.8-5.067.8-5.867 0-.933-.934-.666-1.334.4-1.334 1.067 0 1.467-.8.934-2-.8-2.133 1.2-2.8 2.533-.666 1.067 1.733 4.667.133 4.667-2.267 0-1.6.4-1.733 2-.4 2.266 1.867 4.666.667 4.666-2.4 0-1.6.4-1.733 1.6-.533 2.267 2.266 5.067 2 5.067-.4 0-1.734.4-1.734 2.667-.4 2.133 1.466 2.933 1.333 4.4-.8 1.6-2.267 1.866-2.267 2.666-.4zm7.6 11.2c8.267-1.2 11.467-2.267 11.734-3.867.266-1.333-.8-2.267-2.934-2.667-1.866-.4-3.6-.533-3.866-.266-.134.266-3.334.533-6.934.666-3.733.267-8 1.067-9.6 1.867-2.533 1.333-2.8 2-1.333 3.867 1.467 2 2.667 2 12.933.4zm43.334-.934c8.666 0 11.866-3.066 4.4-4.4-2.4-.4-5.467-1.066-6.667-1.6-1.6-.666-2.667-.266-3.2 1.067-1.2 3.333.533 4.933 5.467 4.933zm-198 28.934c-9.734 8.8-6.4 24.267 6.133 28.4 11.867 4 24.533-8.667 20.533-20.534C87.6 38.717 73.2 34.584 64.667 42.184zm17.466 1.733c1.334.8 3.467 3.2 4.667 5.467 5.2 10.267-5.2 21.2-15.867 16.666-5.6-2.266-7.6-5.6-7.6-12.133 0-8.933 10.267-14.533 18.8-10zm-9.466 12.667c-1.334-1.6-1.334-2.4 0-4 .933-1.067 2.133-2 2.666-2 2 0 4.267 4 3.467 6-.933 2.533-4 2.533-6.133 0zm166-42c-2 .933-1.334 1.2 3.066 1.2 3.467.133 5.467-.4 4.934-1.2-.934-1.6-4.267-1.6-8 0zm46.666 4.666c-5.733-1.2-10.8-2.4-11.2-2.666-1.2-1.2 9.067-.667 16.134.933 3.866.8 8 2.4 9.066 3.467 1.734 1.6 1.734 1.733-.8 1.066-1.6-.533-7.466-1.733-13.2-2.8zm-96 3.334c-5.466 2.8-3.866 2.533 6.134-.534 4.4-1.333 5.066-1.866 2.533-2-1.867 0-5.733 1.067-8.667 2.534zm11.752 3.318c1.686-1.494 4.402-1.826 12.248-2.785 5.615-.674 10.946-1.347 13.126-1.623h.003l.447-.057.424-.053c1.067 0-.133 1.6-2.666 3.733-1.728 1.432-2.816 2.334-3.502 3.477C220 30.538 220 33.18 220 40.317v11.334l-6.267 6.666c-3.466 3.733-6.666 8.134-7.066 9.867-.229.913-.587 2.565-.977 4.36-.293 1.35-.604 2.78-.89 4.04l-1.067 5.333-1.6-3.867c-1.2-3.066-1.066-5.333.534-10.8 2.933-10.133 2.533-14.266-2.267-24l-4.4-8.8 2.667-4.933c.923-1.707 1.526-2.824 2.418-3.615zm11.982 28.948c3.2-3.333 3.6-4.933 4.133-16l.667-12.266h-5.6c-5.734 0-10.534 2.8-12 6.933-.4 1.2.666 5.067 2.4 8.4 1.866 3.334 3.733 8.533 4.133 11.334.533 2.933 1.333 5.333 1.733 5.333.534 0 2.534-1.734 4.534-3.734zM232 22.584c-.533.8 1.6 1.333 5.2 1.333 3.333 0 6.133-.667 6.133-1.333 0-.8-2.4-1.334-5.2-1.334-2.933 0-5.733.534-6.133 1.334zm14.267 19.733c2.533-7.6 2.666-13.6.4-18.8-.934-2.133-.534-2.4 3.466-1.733 2.534.4 8 1.067 12.267 1.466 8.133.934 10.267 2.8 10.267 9.067 0 3.6-2.267 5.867-10.4 10.4-7.334 4-8.8 6.934-11.867 22.534L248 77.784l-2.267-13.867c-2.266-13.467-2.266-13.867.534-21.6zm16.666-2.933c6-3.067 7.6-6.534 4.667-9.867-2.267-2.666-13.6-5.2-15.333-3.466-.534.533-.934 3.066-.934 5.733-.133 2.666-.933 7.2-2 10.133-1.066 2.933-2 7.733-2 10.667.134 4.933.267 5.2 2 2.8 1.067-1.467 2-3.6 2-4.8 0-2.667 5.867-8.267 11.6-11.2zm13.6-12c2.534 1.2 7.467 2.4 11.067 2.8 4.933.533 6.4 1.2 5.867 2.666-.534 1.067-.8 3.734-.8 6 0 2.934-1.6 5.6-6.134 10.267-7.066 7.067-8.533 10.134-8.533 17.6v5.467l4.4-5.867c3.067-4.133 7.067-7.066 13.733-10.4 5.334-2.533 10.667-5.467 11.867-6.533 1.867-1.733 7.333-10.934 7.333-12.667 0-1.466-36.666-11.6-41.2-11.333-1.2 0-.133.933 2.4 2zm31.2 10.133c5.334 2.667.267 10-10 14.4-3.866 1.6-9.066 4.4-11.333 6.267-6.133 4.533-5.467 1.867 1.467-6.267 3.2-3.733 6.266-8.933 6.666-11.333.534-2.4 1.6-4.8 2.534-5.067 1.866-.8 7.2.267 10.666 2zm-126.4-7.067 5.334-1.733c2.933-1.066 6.266-2 7.333-2 4-.133-1.733 2.267-7.333 3.067l-5.334.667zm-6.533 1.334c-1.067 1.6 1.2 7.467 4.4 12 2.533 3.467 3.467 8 3.067 14.8-.113 1.356-.178 2.137-.49 2.253-.424.156-1.303-.918-3.377-3.453-2.933-3.334-5.6-4.8-11.733-6.267-4.4-.933-9.2-1.866-10.667-1.866-4.933.133 1.333 2.666 10 4.133 4.267.8 8.533 2.267 9.333 3.066.667.934 1.867 4.8 2.667 8.534 1.067 6.267 4.667 14.933 5.867 14.933.266 0 .266-2.4-.134-5.2-.4-2.933 0-9.2.934-13.867 1.333-7.333 1.2-9.2-.667-13.733-1.2-2.8-3.333-6.533-4.933-8.133-1.734-1.867-2.534-4-2-5.733.666-2.667-.934-3.734-2.267-1.467zm154.8 11.6c-1.067 1.2-9.867-2-11.6-4.267-.933-.933-1.333-1.866-.933-1.866 2 0 13.2 5.466 12.533 6.133zm-2 5.6c-2.933 2.8-4.267 5.466-4.933 10.4-1.2 7.733-2.534 10.666-7.067 15.466-5.867 6.267-1.2 4.134 5.067-2.4 6.4-6.4 12.666-10.266 23.066-13.733l6.4-2.267-7.733-5.6c-4.133-3.066-8.4-5.6-9.2-5.6-.933 0-3.333 1.734-5.6 3.734zm12.267 4.267c2.266 2.266 2.133 2.4-4.934 5.866-4.133 1.867-8 3.467-8.8 3.467-2.533 0 1.2-11.334 4.134-12.4 2.533-1.067 6.666.267 9.6 3.067zm-190 74.799c5.466-.933 10.8-2.133 12-2.8 2.8-1.6 3.733-.4 1.333 1.867-2.8 2.533-10.133 4.8-16.133 4.8-6.267 0-12.8 2.667-16.267 6.533-4.133 4.534-2 4.267 6.133-.8 4.134-2.533 8.134-4.266 8.934-3.733 2.133 1.2 1.866 5.067-.4 4.267-.934-.4-4.4 1.066-7.6 3.2-9.467 6.266-15.2 4.8-11.2-2.934 2.666-5.2 10-8.4 23.2-10.4z" fill="#000" fill-opacity=".2"/></g><defs><linearGradient id="b" x1="247.308" y1="124" x2="247.308" y2="176.24" gradientUnits="userSpaceOnUse"><stop stop-color="#8C6F20"/><stop offset="1" stop-color="#483A11"/></linearGradient><linearGradient id="c" x1="144" y1="171.405" x2="238.5" y2="171.405" gradientUnits="userSpaceOnUse"><stop stop-color="#8C6F20"/><stop offset="1" stop-color="#483A11"/></linearGradient><clipPath id="a"><path fill="#fff" d="M0 0h478v240H0z"/></clipPath></defs></svg>