<svg width="80" height="80" viewBox="0 0 80 80" fill="none" xmlns="http://www.w3.org/2000/svg">
<mask id="mask0_43_294" style="mask-type:luminance" maskUnits="userSpaceOnUse" x="0" y="0" width="80" height="80">
<path d="M0 0H80V80H0V0Z" fill="white"/>
</mask>
<g mask="url(#mask0_43_294)">
<path fill-rule="evenodd" clip-rule="evenodd" d="M27.575 17.5H30.68L32.88 15.3L38.23 9.95002C38.4623 9.71721 38.7381 9.53249 39.0419 9.40646C39.3456 9.28043 39.6712 9.21556 40 9.21556C40.3289 9.21556 40.6545 9.28043 40.9582 9.40646C41.2619 9.53249 41.5378 9.71721 41.77 9.95002L47.12 15.3L49.32 17.5H60C60.6631 17.5 61.299 17.7634 61.7678 18.2323C62.2366 18.7011 62.5 19.337 62.5 20V30.68L64.7 32.88L70.05 38.23C70.2828 38.4623 70.4676 38.7381 70.5936 39.0419C70.7196 39.3456 70.7845 39.6712 70.7845 40C70.7845 40.3289 70.7196 40.6545 70.5936 40.9582C70.4676 41.2619 70.2828 41.5378 70.05 41.77L64.7 47.12L62.5 49.32V60C62.5 60.6631 62.2366 61.299 61.7678 61.7678C61.299 62.2366 60.6631 62.5 60 62.5H49.32L47.12 64.7L41.77 70.05C41.5378 70.2828 41.2619 70.4676 40.9582 70.5936C40.6545 70.7196 40.3289 70.7845 40 70.7845C39.6712 70.7845 39.3456 70.7196 39.0419 70.5936C38.7381 70.4676 38.4623 70.2828 38.23 70.05L32.88 64.7L30.68 62.5H20C19.337 62.5 18.7011 62.2366 18.2323 61.7678C17.7634 61.299 17.5 60.6631 17.5 60V49.32L15.3 47.12L9.95002 41.77C9.71721 41.5378 9.53249 41.2619 9.40646 40.9582C9.28043 40.6545 9.21556 40.3289 9.21556 40C9.21556 39.6712 9.28043 39.3456 9.40646 39.0419C9.53249 38.7381 9.71721 38.4623 9.95002 38.23L15.3 32.88L17.5 30.68V20C17.5 19.337 17.7634 18.7011 18.2323 18.2323C18.7011 17.7634 19.337 17.5 20 17.5H27.575ZM47.075 4.64503C46.1463 3.71526 45.0434 2.97767 43.8294 2.47443C42.6154 1.97118 41.3142 1.71216 40 1.71216C38.6859 1.71216 37.3846 1.97118 36.1706 2.47443C34.9566 2.97767 33.8538 3.71526 32.925 4.64503L27.58 10H20C17.3479 10 14.8043 11.0536 12.929 12.929C11.0536 14.8043 10 17.3479 10 20V27.575L4.64503 32.925C3.71526 33.8538 2.97767 34.9566 2.47443 36.1706C1.97118 37.3846 1.71216 38.6859 1.71216 40C1.71216 41.3142 1.97118 42.6154 2.47443 43.8294C2.97767 45.0434 3.71526 46.1463 4.64503 47.075L10 52.42V60C10 62.6522 11.0536 65.1957 12.929 67.0711C14.8043 68.9465 17.3479 70 20 70H27.575L32.925 75.355C33.8538 76.2848 34.9566 77.0224 36.1706 77.5256C37.3846 78.0289 38.6859 78.2879 40 78.2879C41.3142 78.2879 42.6154 78.0289 43.8294 77.5256C45.0434 77.0224 46.1463 76.2848 47.075 75.355L52.42 70H60C62.6522 70 65.1957 68.9465 67.0711 67.0711C68.9465 65.1957 70 62.6522 70 60V52.425L75.355 47.075C76.2848 46.1463 77.0224 45.0434 77.5256 43.8294C78.0289 42.6154 78.2879 41.3142 78.2879 40C78.2879 38.6859 78.0289 37.3846 77.5256 36.1706C77.0224 34.9566 76.2848 33.8538 75.355 32.925L70 27.58V20C70 17.3479 68.9465 14.8043 67.0711 12.929C65.1957 11.0536 62.6522 10 60 10H52.425L47.075 4.64503ZM55.5 32.25C55.7955 31.8561 56.0105 31.4078 56.1327 30.9307C56.2549 30.4537 56.282 29.9572 56.2123 29.4697C56.1427 28.9822 55.9777 28.5132 55.7268 28.0894C55.4759 27.6657 55.144 27.2955 54.75 27C54.3561 26.7045 53.9078 26.4896 53.4307 26.3673C52.9537 26.2451 52.4572 26.2181 51.9697 26.2877C51.4822 26.3574 51.0132 26.5223 50.5894 26.7732C50.1657 27.0241 49.7955 27.3561 49.5 27.75L37.095 44.29L30.15 37.35C29.4391 36.6876 28.4989 36.327 27.5274 36.3442C26.5559 36.3613 25.629 36.7548 24.9419 37.4419C24.2549 38.129 23.8613 39.0559 23.8442 40.0274C23.827 40.9989 24.1876 41.9392 24.85 42.65L34.85 52.65C35.2298 53.0297 35.6867 53.3235 36.1898 53.5113C36.693 53.6991 37.2306 53.7767 37.7663 53.7388C38.302 53.7009 38.8233 53.5483 39.2949 53.2915C39.7666 53.0346 40.1775 52.6795 40.5 52.25L55.5 32.25Z" fill="white"/>
</g>
</svg>
